<?xml version="1.0" encoding="UTF-8"?>
<svg version="1.1" xmlns="http://www.w3.org/2000/svg" width="500" height="500">
<path d="M0 0 C1.00792603 -0.0071553 2.01585205 -0.01431061 3.05432129 -0.02168274 C4.72723488 -0.02571609 4.72723488 -0.02571609 6.4339447 -0.02983093 C7.60142242 -0.03640213 8.76890015 -0.04297333 9.97175598 -0.04974365 C13.1849427 -0.06611899 16.39809526 -0.07771469 19.61131215 -0.08594918 C21.61999155 -0.09109712 23.62866632 -0.09717318 25.63734245 -0.10346031 C31.92498173 -0.1225268 38.21260921 -0.13675051 44.50027186 -0.14507228 C51.75173502 -0.1548281 59.00289157 -0.18109768 66.25424677 -0.22157317 C71.86114221 -0.25179138 77.46795011 -0.26654684 83.07492536 -0.26985329 C86.42214845 -0.27219888 89.76878558 -0.2830786 93.1159687 -0.30631447 C96.85762466 -0.33066765 100.5984837 -0.32974682 104.3401947 -0.32279968 C105.44130081 -0.33560974 106.54240692 -0.3484198 107.67687988 -0.36161804 C114.38546495 -0.31628888 118.58029358 0.67324866 124.33995056 4.14717102 C125.21071228 4.6175177 126.081474 5.08786438 126.97862244 5.57246399 C127.74754822 6.00703918 128.516474 6.44161438 129.30870056 6.88935852 C130.19670349 7.39072327 131.08470642 7.89208801 131.99961853 8.40864563 C133.40558289 9.2073407 133.40558289 9.2073407 134.83995056 10.02217102 C135.84042419 10.58879456 136.84089783 11.15541809 137.87168884 11.73921204 C146.01777372 16.36590888 154.10689793 21.08682204 162.18638611 25.8285675 C170.6237573 30.76552439 179.14238587 35.54933143 187.70469666 40.2660675 C192.52775643 42.93908375 197.25045912 45.68948718 201.88291931 48.68232727 C206.31418053 51.54101429 210.83119442 54.1221704 215.47862244 56.61103821 C220.7221132 59.42605902 225.89954426 62.3607851 231.08995056 65.27217102 C232.71610291 66.18289368 232.71610291 66.18289368 234.37510681 67.11201477 C239.70992853 70.10185991 245.02998427 73.11290457 250.33995056 76.14717102 C250.33995056 63.60717102 250.33995056 51.06717102 250.33995056 38.14717102 C246.04995056 38.14717102 241.75995056 38.14717102 237.33995056 38.14717102 C229.24085815 37.23459723 223.14298138 33.47726363 216.27305603 29.31660461 C212.99944435 27.33623079 209.69958105 25.40054062 206.40245056 23.45967102 C205.71586365 23.05361633 205.02927673 22.64756165 204.32188416 22.22920227 C196.91296579 17.86141935 189.41834548 13.64633959 181.9183197 9.43745422 C180.50667542 8.64407654 180.50667542 8.64407654 179.06651306 7.83467102 C178.22684998 7.36416321 177.38718689 6.8936554 176.52207947 6.40888977 C174.75512582 5.3872276 173.03821368 4.27934644 171.33995056 3.14717102 C171.33995056 2.48717102 171.33995056 1.82717102 171.33995056 1.14717102 C173.72883212 -0.04726976 175.19030733 0.02140035 177.85691833 0.02018738 C179.28290596 0.01595764 179.28290596 0.01595764 180.73770142 0.01164246 C181.78400223 0.01366669 182.83030304 0.01569092 183.90830994 0.01777649 C185.55715935 0.01514801 185.55715935 0.01514801 187.23931885 0.01246643 C190.88746196 0.0080507 194.53555693 0.01098495 198.18370056 0.01435852 C200.70953887 0.0136854 203.23537712 0.01271531 205.76121521 0.01145935 C211.06074193 0.00998275 216.36025127 0.0120409 221.65977478 0.01679993 C227.79118195 0.02224233 233.92255587 0.02047959 240.05396223 0.01497352 C245.94647976 0.00989329 251.83898694 0.01042523 257.73150635 0.01335526 C260.24183151 0.01402424 262.75215751 0.01319709 265.26248169 0.0108757 C268.76554134 0.00834752 272.26853637 0.01219217 275.77159119 0.01777649 C277.3410424 0.01474014 277.3410424 0.01474014 278.94219971 0.01164246 C279.89285812 0.01446228 280.84351654 0.0172821 281.82298279 0.02018738 C282.65184242 0.0205644 283.48070206 0.02094143 284.33467865 0.02132988 C286.33995056 0.14717102 286.33995056 0.14717102 288.33995056 1.14717102 C288.33995056 47.34717102 288.33995056 93.54717102 288.33995056 141.14717102 C282.93866227 140.2469563 280.76088736 139.51806628 276.27745056 136.83467102 C275.04735428 136.10877904 273.81685884 135.38356322 272.58604431 134.65888977 C271.91428162 134.25976379 271.24251892 133.86063782 270.55039978 133.44941711 C266.34025067 130.96908407 262.08606576 128.56521909 257.83995056 126.14717102 C256.01686509 125.10579981 254.19394546 124.06413822 252.37120056 123.02217102 C251.50495056 122.52717102 250.63870056 122.03217102 249.74620056 121.52217102 C240.33995056 116.14717102 240.33995056 116.14717102 237.01963806 114.24873352 C234.23486927 112.65721569 231.44780664 111.06976088 228.66026306 109.48310852 C219.12498208 104.05079937 209.62178394 98.56872069 200.15245056 93.02217102 C192.48618172 88.53459902 184.78479791 84.12861242 177.00645447 79.83857727 C164.23287283 72.78869281 151.55143776 65.59698845 139.17198181 57.87373352 C135.59461484 55.69277324 131.93426196 53.70019769 128.24229431 51.72138977 C124.7886711 49.84815941 121.37488063 47.9110054 117.96495056 45.95967102 C116.82284119 45.30611633 115.68073181 44.65256165 114.50401306 43.97920227 C112.54176125 42.84303425 110.59519185 41.67869376 108.67588806 40.47138977 C104.70786082 38.22195627 101.26625587 38.02346313 96.745224 38.03364563 C95.62436401 38.03372116 94.50350403 38.03379669 93.34867859 38.03387451 C92.14439209 38.0390358 90.94010559 38.04419708 89.69932556 38.04951477 C87.84334747 38.05163719 87.84334747 38.05163719 85.94987488 38.05380249 C82.66850115 38.05844992 79.38717683 38.06742755 76.1058197 38.07850647 C72.75418045 38.08875582 69.40253908 38.09322243 66.05088806 38.0983429 C59.48055625 38.10937077 52.91025745 38.12610806 46.33995056 38.14717102 C46.97221054 38.50334 47.60447052 38.85950897 48.25588989 39.22647095 C59.43076613 45.5243649 70.60172764 51.82076262 81.65245056 58.33467102 C90.78584791 63.68952711 99.98953617 68.89417901 109.26377869 74.00019836 C119.33216549 79.56243745 129.32362782 85.26419835 139.30381775 90.98262024 C141.62924886 92.312633 143.95716594 93.63823686 146.28526306 94.96357727 C154.64525175 99.72587852 162.99274388 104.50482268 171.27745056 109.39717102 C180.28627229 114.71673512 189.36335091 119.91035824 198.48057556 125.04170227 C209.4399105 131.21369843 220.34418308 137.46612144 231.19224548 143.83174133 C238.58559909 148.1568021 246.04189612 152.35904897 253.52745056 156.52217102 C261.93286008 161.19701355 270.23838487 165.96088046 278.33995056 171.14717102 C277.86348697 175.8511661 275.68858212 178.67185612 272.77745056 182.20967102 C269.50771839 186.31612969 266.3971297 190.43204363 263.52745056 194.83467102 C258.61885427 202.33555813 253.32267522 209.54866659 248.0499115 216.7960968 C245.2861421 220.59608242 242.53121702 224.40243361 239.77745056 228.20967102 C239.24555115 228.94266418 238.71365173 229.67565735 238.16563416 230.43086243 C235.39859754 234.25393003 232.67112836 238.09883847 229.99620056 241.98701477 C229.18517883 243.15961853 229.18517883 243.15961853 228.35777283 244.35591125 C227.3298246 245.8463012 226.30906288 247.34168222 225.29673767 248.84272766 C224.83533386 249.51038147 224.37393005 250.17803528 223.89854431 250.86592102 C223.4994989 251.45308899 223.10045349 252.04025696 222.6893158 252.6452179 C221.03726888 254.48408032 219.67661443 255.3414345 217.33995056 256.14717102 C214.75676231 254.96294658 212.5879923 253.73731488 210.21495056 252.20967102 C208.68359868 251.2663137 207.15096121 250.32504125 205.61729431 249.38545227 C204.77666443 248.86547668 203.93603455 248.3455011 203.06993103 247.80976868 C198.02994099 244.74034172 192.89713045 241.83099262 187.77745056 238.89717102 C178.30003841 233.44212493 168.8446076 227.95084254 159.40489197 222.43086243 C151.8398476 218.01115906 144.248374 213.63853702 136.65245056 209.27217102 C129.02250888 204.88505209 121.45973229 200.4329721 113.99620056 195.76826477 C110.46106768 193.61079397 106.83595595 191.64817463 103.18760681 189.69013977 C93.74404562 184.57325819 84.49375098 179.08677187 75.20201111 173.70039368 C70.5338605 170.99457748 65.86268047 168.29413595 61.18760681 165.60029602 C60.1199408 164.98509094 59.05227478 164.36988586 57.95225525 163.73603821 C55.74328971 162.46321906 53.53430518 161.19043287 51.32530212 159.91767883 C42.81573681 155.00994064 34.33448283 150.05496741 25.85948181 145.08784485 C18.95557675 141.05458999 11.998909 137.12919053 4.95713806 133.34126282 C3.94973572 132.79272644 3.94973572 132.79272644 2.92198181 132.23310852 C2.34681824 131.92421692 1.77165466 131.61532532 1.17906189 131.29707336 C0.57215515 130.91760559 -0.03475159 130.53813782 -0.66004944 130.14717102 C-1.99326233 129.38219299 -1.99326233 129.38219299 -3.35340881 128.60176086 C-6.81190643 124.92143327 -6.29185517 121.66073938 -6.14833069 116.78779602 C-6.14125595 115.88341797 -6.13418121 114.97903992 -6.12689209 114.04725647 C-6.09893709 111.16304773 -6.03619756 108.28079137 -5.97254944 105.39717102 C-5.94746795 103.44016784 -5.92465452 101.48313418 -5.90419006 99.52607727 C-5.84910683 94.73235802 -5.76282724 89.94009534 -5.66004944 85.14717102 C-1.79995612 85.73076858 0.95661251 86.86137896 4.30479431 88.85029602 C5.25910339 89.41232727 6.21341248 89.97435852 7.19664001 90.55342102 C8.2133075 91.16185852 9.22997498 91.77029602 10.27745056 92.39717102 C11.33343445 93.02107727 12.38941833 93.64498352 13.47740173 94.28779602 C16.76898685 96.2341502 20.05478313 98.19000823 23.33995056 100.14717102 C26.34155198 101.92863235 29.34424423 103.70822411 32.3480072 105.48603821 C34.15604428 106.5569779 35.96263635 107.63036277 37.7674408 108.70674133 C42.94104072 111.78064164 48.17079751 114.72051385 53.46324158 117.58467102 C58.63477017 120.39361467 63.76673692 123.27343022 68.90245056 126.14717102 C69.96141541 126.73756165 71.02038025 127.32795227 72.11143494 127.93623352 C77.80267163 131.12024025 83.43905368 134.37264632 89.01841736 137.74873352 C92.63940041 139.92992933 96.30194914 142.03757 99.96495056 144.14717102 C105.32853221 147.24195871 110.68634694 150.34574273 116.02745056 153.47920227 C126.24358668 159.47013582 136.49238769 165.38570738 146.83995056 171.14717102 C157.01823638 176.81502963 167.09835893 182.63464663 177.14854431 188.52607727 C184.02724419 192.55680107 190.93220362 196.5415181 197.83995056 200.52217102 C198.42154938 200.85739777 199.00314819 201.19262451 199.60237122 201.53800964 C202.84777032 203.40853053 206.0936321 205.2782462 209.33995056 207.14717102 C213.03071166 203.55798598 216.00586903 199.73484327 219.02745056 195.58467102 C219.52567322 194.91242493 220.02389587 194.24017883 220.53721619 193.54756165 C221.01223572 192.89851868 221.48725525 192.24947571 221.97666931 191.58076477 C222.40681335 190.99351624 222.8369574 190.4062677 223.28013611 189.80122375 C224.52075305 188.01401193 224.52075305 188.01401193 225.33995056 185.14717102 C224.63088562 184.73990784 223.92182068 184.33264465 223.19126892 183.91304016 C219.88582052 182.01337873 216.58127701 180.11215144 213.27745056 178.20967102 C212.68237701 177.86703217 212.08730347 177.52439331 211.47419739 177.17137146 C204.58171979 173.20038951 197.70443494 169.20948417 190.90245056 165.08467102 C186.18750768 162.22826212 181.41818661 159.51903208 176.56260681 156.90888977 C163.31993028 149.66955993 150.31834822 141.98175299 137.29112244 134.36445618 C125.52054874 127.48818252 113.67581862 120.74304237 101.82041931 114.01435852 C93.29462551 109.1683562 84.80090226 104.31803601 76.51963806 99.06123352 C72.85529739 96.85542648 69.11543491 94.82110071 65.35508728 92.78437805 C52.41200288 85.75633562 39.5033446 78.64200722 27.03135681 70.80342102 C23.50725976 68.63474591 19.8884479 66.67564243 16.24229431 64.72138977 C12.7886711 62.84815941 9.37488063 60.9110054 5.96495056 58.95967102 C4.82284119 58.30611633 3.68073181 57.65256165 2.50401306 56.97920227 C0.93780212 56.0723468 0.93780212 56.0723468 -0.66004944 55.14717102 C-1.53951233 54.84980042 -2.41897522 54.55242981 -3.3250885 54.24604797 C-5.66004944 52.14717102 -5.66004944 52.14717102 -6.10148621 49.91329956 C-6.25887529 46.84164285 -6.24703732 43.80822971 -6.18348694 40.73310852 C-6.17878387 39.60772675 -6.17408081 38.48234497 -6.16923523 37.32286072 C-6.14784715 33.7220138 -6.0911866 30.12262642 -6.03504944 26.52217102 C-6.01854944 24.08728897 -6.00419955 21.65239132 -5.99208069 19.21748352 C-5.95805735 14.77637818 -5.92345396 10.33541711 -5.85292053 5.89472961 C-5.84006012 4.99998932 -5.82719971 4.10524902 -5.81394958 3.18339539 C-5.52016942 -0.70355562 -3.40098557 0.01649753 0 0 Z " fill="#F8CB7F" transform="translate(109.66004943847656,28.852828979492188)"/>
<path d="M0 0 C3.61979444 0.66258495 6.13511134 1.45988184 9.25 3.4375 C13.63787163 6.15746721 18.04879009 8.82304457 22.5 11.4375 C23.2019751 11.85040283 23.9039502 12.26330566 24.62719727 12.6887207 C37.77285702 20.40455912 50.97485611 28.03088642 64.24023438 35.5390625 C69.61520228 38.58219738 74.86121527 41.75347701 80.01171875 45.1640625 C83.56470857 47.34694514 87.21325139 49.31173973 90.88012695 51.29589844 C96.54679906 54.39108361 102.14613977 57.6054892 107.75 60.8125 C108.36561798 61.16449463 108.98123596 61.51648926 109.61550903 61.87915039 C122.2344759 69.09782761 134.68199114 76.55962953 147.04296875 84.2109375 C150.40563035 86.2454144 153.82168826 88.15028357 157.29296875 89.9921875 C159 91 159 91 161 93 C161.17546482 96.01308951 161.23127445 98.93310454 161.1953125 101.9453125 C161.1924826 102.8303244 161.18965271 103.7153363 161.18673706 104.62716675 C161.1755224 107.45991412 161.1504157 110.29234784 161.125 113.125 C161.11497185 115.04296419 161.10584572 116.96093333 161.09765625 118.87890625 C161.07557889 123.58605876 161.04104045 128.29297616 161 133 C158 134 158 134 156.29614258 133.32592773 C155.66861084 132.94895752 155.0410791 132.5719873 154.39453125 132.18359375 C153.67128662 131.7565918 152.94804199 131.32958984 152.20288086 130.88964844 C151.41405518 130.41043945 150.62522949 129.93123047 149.8125 129.4375 C148.08081756 128.41000727 146.34904242 127.38267074 144.6171875 126.35546875 C143.7003418 125.80681152 142.78349609 125.2581543 141.83886719 124.69287109 C137.0593431 121.84274897 132.24662209 119.04978258 127.4375 116.25 C126.44008789 115.66758545 125.44267578 115.0851709 124.41503906 114.48510742 C115.7062285 109.40082482 106.97033266 104.3641411 98.23144531 99.33178711 C92.19895731 95.85496801 86.18090934 92.35622792 80.1875 88.8125 C73.26606913 84.72064849 66.29056408 80.72830145 59.30322266 76.75024414 C51.32819566 72.20313049 43.39898045 67.57937548 35.47509766 62.94384766 C30.73187833 60.17070996 25.98670381 57.40350341 21.20410156 54.69873047 C19.5787607 53.77613766 17.96975652 52.82486899 16.36425781 51.86816406 C13.05972321 49.93619611 13.05972321 49.93619611 9.56835938 48.65185547 C5.72946604 46.92523243 2.53026996 45.44306677 0 42 C-2.17639077 35.15015905 -1.21501919 27.56424106 -0.8125 20.5 C-0.74723455 18.51320948 -0.68792863 16.52621369 -0.63476562 14.5390625 C-0.49202588 9.6876162 -0.268133 4.84606765 0 0 Z " fill="#F7CB80" transform="translate(104,189)"/>
<path d="M0 0 C6.02145681 3.77796148 10.29382222 9.58688172 12.22265625 16.39453125 C13.29665221 24.90202733 11.99283323 31.25897726 7.22265625 38.39453125 C3.07479155 43.41563063 -2.29477906 47.14834506 -8.77734375 48.39453125 C-18.47586555 49.17764171 -25.03163052 47.90208847 -32.58984375 41.70703125 C-38.85544031 35.73310902 -39.90498083 30.94310239 -40.21484375 22.39453125 C-40.02300116 15.20427083 -38.88763465 10.7274677 -33.9765625 5.46484375 C-24.35511612 -3.54008277 -12.13154076 -5.58248136 0 0 Z M-24.46484375 12.20703125 C-27.81933742 16.8307928 -28.36186556 20.7937495 -27.77734375 26.39453125 C-26.07292182 31.05926496 -24.02111071 33.79040153 -19.77734375 36.39453125 C-14.83053536 37.79457136 -11.21343009 37.45569904 -6.57421875 35.46875 C-2.44068068 32.99761311 -1.08013309 29.48457286 0.16015625 25.01953125 C0.239619 20.4106919 -0.93430859 17.59665142 -2.77734375 13.39453125 C-3.43734375 13.39453125 -4.09734375 13.39453125 -4.77734375 13.39453125 C-4.77734375 12.73453125 -4.77734375 12.07453125 -4.77734375 11.39453125 C-10.60892638 7.93464491 -19.38511251 7.22617555 -24.46484375 12.20703125 Z " fill="#F6CA82" transform="translate(127.77734375,367.60546875)"/>
<path d="M0 0 C0.7940625 -0.01417969 1.588125 -0.02835937 2.40625 -0.04296875 C4.5 0.1875 4.5 0.1875 6.5 2.1875 C6.72705078 4.06689453 6.72705078 4.06689453 6.6953125 6.3203125 C6.69031738 7.04621582 6.68532227 7.77211914 6.68017578 8.52001953 C6.65286377 9.90229736 6.65286377 9.90229736 6.625 11.3125 C6.58375 14.24125 6.5425 17.17 6.5 20.1875 C12.77 20.1875 19.04 20.1875 25.5 20.1875 C25.38140735 14.35333997 25.38140735 14.35333997 25.22973633 8.52001953 C25.22224365 7.79411621 25.21475098 7.06821289 25.20703125 6.3203125 C25.1913208 5.57668457 25.17561035 4.83305664 25.15942383 4.06689453 C25.27181396 3.44669434 25.3842041 2.82649414 25.5 2.1875 C28.8225225 -0.027515 29.37731591 -0.00660876 33.125 0.5 C34.31996094 0.64888672 34.31996094 0.64888672 35.5390625 0.80078125 C37.5 1.1875 37.5 1.1875 38.5 2.1875 C38.59803393 3.58365294 38.62798173 4.98468752 38.62939453 6.38427734 C38.63254669 7.27545258 38.63569885 8.16662781 38.63894653 9.08480835 C38.6369223 10.05455597 38.63489807 11.02430359 38.6328125 12.0234375 C38.63376923 13.01372955 38.63472595 14.00402161 38.63571167 15.02432251 C38.63639373 17.12428857 38.63453769 19.22425672 38.63037109 21.32421875 C38.62503447 24.54171492 38.6303094 27.75907077 38.63671875 30.9765625 C38.63605775 33.01302114 38.63477614 35.0494797 38.6328125 37.0859375 C38.63483673 38.05163666 38.63686096 39.01733582 38.63894653 40.01229858 C38.63421829 41.35851791 38.63421829 41.35851791 38.62939453 42.73193359 C38.62859894 43.52167572 38.62780334 44.31141785 38.62698364 45.12509155 C38.5 47.1875 38.5 47.1875 37.5 50.1875 C33.87 50.1875 30.24 50.1875 26.5 50.1875 C24.84714041 46.88178083 25.3994882 43.192122 25.4375 39.5625 C25.458125 36.79875 25.47875 34.035 25.5 31.1875 C19.23 31.1875 12.96 31.1875 6.5 31.1875 C6.53952149 36.6921882 6.53952149 36.6921882 6.59008789 42.19677734 C6.61111111 47.96527778 6.61111111 47.96527778 5.5 50.1875 C3.68757948 50.21437279 1.87504767 50.23383715 0.0625 50.25 C-0.94683594 50.26160156 -1.95617187 50.27320313 -2.99609375 50.28515625 C-5.5 50.1875 -5.5 50.1875 -6.5 49.1875 C-6.59311889 47.68331261 -6.61746028 46.17478644 -6.61352539 44.66772461 C-6.61344986 43.70680405 -6.61337433 42.74588348 -6.61329651 41.75584412 C-6.60813522 40.711064 -6.60297394 39.66628387 -6.59765625 38.58984375 C-6.5962413 37.52584854 -6.59482635 36.46185333 -6.59336853 35.36561584 C-6.58775064 31.95204917 -6.57519511 28.538547 -6.5625 25.125 C-6.55748731 22.81705824 -6.552924 20.50911545 -6.54882812 18.20117188 C-6.5377754 12.52992574 -6.52101987 6.85871747 -6.5 1.1875 C-4.14653604 0.01076802 -2.6193967 0.02126134 0 0 Z " fill="#F5C981" transform="translate(278.5,364.8125)"/>
<path d="M0 0 C0.66 0.66 1.32 1.32 2 2 C1.625 4.625 1.625 4.625 1 7 C0.34 7 -0.32 7 -1 7 C-1.33 7.99 -1.66 8.98 -2 10 C-3.75 10.875 -3.75 10.875 -6 11 C-6.73089844 10.52175781 -7.46179688 10.04351562 -8.21484375 9.55078125 C-11.55669438 7.69003132 -14.01182909 7.50445308 -17.8125 7.3125 C-18.97394531 7.24675781 -20.13539063 7.18101562 -21.33203125 7.11328125 C-22.21246094 7.07589844 -23.09289062 7.03851563 -24 7 C-24 8.32 -24 9.64 -24 11 C-20.6721093 13.2185938 -17.5679511 13.95999225 -13.75 14.875 C-1.15850899 18.09950355 -1.15850899 18.09950355 3 23.6875 C4.33986434 28.12580063 4.37388072 31.56190218 3 36 C0.32239536 40.791989 -3.35028907 43.95479685 -8.60546875 45.5625 C-17.68338465 47.2211078 -25.88173804 46.46655305 -34 42 C-37.125 39.75 -37.125 39.75 -39 38 C-38.67 36.35 -38.34 34.7 -38 33 C-37.34 33 -36.68 33 -36 33 C-35.34 31.68 -34.68 30.36 -34 29 C-31.0114928 29.43948635 -28.87363626 30.06739399 -26.1875 31.5 C-20.43973047 34.20483272 -15.19242553 34.39329574 -9 33 C-9.02663365 31.03469468 -9.02663365 31.03469468 -10 29 C-12.73037527 27.72931422 -12.73037527 27.72931422 -16.0625 26.9375 C-17.23941406 26.60492188 -18.41632813 26.27234375 -19.62890625 25.9296875 C-20.74136719 25.62289063 -21.85382813 25.31609375 -23 25 C-28.46356622 23.35486913 -32.28455663 21.50356772 -36 17 C-37.7792361 11.6622917 -37.83210936 6.83757484 -35.5 1.6875 C-25.6975141 -8.85017235 -11.65470791 -6.35711341 0 0 Z " fill="#F5CB84" transform="translate(243,370)"/>
<path d="M0 0 C0.78503906 -0.00257813 1.57007813 -0.00515625 2.37890625 -0.0078125 C4.4375 0.125 4.4375 0.125 6.4375 1.125 C7.44964798 3.21532178 8.37446881 5.34816623 9.2578125 7.49609375 C9.65309647 8.45238426 9.65309647 8.45238426 10.05636597 9.42799377 C10.61256893 10.77757993 11.16547122 12.12853036 11.71533203 13.48071289 C12.55888289 15.5536115 13.4133067 17.62176193 14.26953125 19.68945312 C18.4375 29.83266788 18.4375 29.83266788 18.4375 32.125 C19.0975 32.125 19.7575 32.125 20.4375 32.125 C20.83839844 30.8771875 21.23929688 29.629375 21.65234375 28.34375 C23.54288048 22.67769042 25.74617778 17.15476936 28 11.625 C28.39896484 10.6246875 28.79792969 9.624375 29.20898438 8.59375 C29.59505859 7.645 29.98113281 6.69625 30.37890625 5.71875 C30.72638916 4.85958984 31.07387207 4.00042969 31.43188477 3.11523438 C32.4375 1.125 32.4375 1.125 34.4375 0.125 C36.14452735 0.05503986 37.85418003 0.04059846 39.5625 0.0625 C40.47257812 0.07152344 41.38265625 0.08054687 42.3203125 0.08984375 C43.36832031 0.10724609 43.36832031 0.10724609 44.4375 0.125 C46.11504575 5.0241961 44.4291406 8.50785718 42.4375 13 C42.11861816 13.74596436 41.79973633 14.49192871 41.47119141 15.26049805 C39.07364629 20.81887155 36.53566324 26.31241815 33.93701172 31.77929688 C31.57387817 36.76082002 29.44186669 41.81614233 27.3828125 46.9296875 C26.4375 49.125 26.4375 49.125 25.4375 50.125 C23.6502943 50.27635944 21.85588124 50.34675778 20.0625 50.375 C19.08539063 50.40078125 18.10828125 50.4265625 17.1015625 50.453125 C13.92405259 50.06176014 13.42630936 49.545586 11.4375 47.125 C10.29003906 44.81933594 10.29003906 44.81933594 9.203125 42.109375 C8.79707031 41.11220459 8.39101563 40.11503418 7.97265625 39.08764648 C7.54855469 38.02747314 7.12445313 36.9672998 6.6875 35.875 C3.29390368 27.53593368 -0.22627715 19.33041635 -4.1875 11.24609375 C-5.66525488 7.89175811 -6.63390449 4.66527038 -7.5625 1.125 C-4.73533905 0.18261302 -2.93073877 -0.00965647 0 0 Z " fill="#F5CA81" transform="translate(23.5625,364.875)"/>
<path d="M0 0 C1.27617187 0.00515625 2.55234375 0.0103125 3.8671875 0.015625 C4.53169922 0.0259375 5.19621094 0.03625 5.88085938 0.046875 C7.89992927 0.07790777 9.91821565 0.08783702 11.9375 0.09375 C17.3467253 0.13737278 22.21541507 0.26339551 27.5390625 1.328125 C27.5390625 4.958125 27.5390625 8.588125 27.5390625 12.328125 C19.6190625 12.328125 11.6990625 12.328125 3.5390625 12.328125 C3.5390625 14.968125 3.5390625 17.608125 3.5390625 20.328125 C4.13968506 20.32288818 4.74030762 20.31765137 5.35913086 20.31225586 C8.06493088 20.29154486 10.77071427 20.27848375 13.4765625 20.265625 C14.42208984 20.25724609 15.36761719 20.24886719 16.34179688 20.24023438 C17.69047852 20.23540039 17.69047852 20.23540039 19.06640625 20.23046875 C20.31538696 20.22261353 20.31538696 20.22261353 21.58959961 20.21459961 C23.5390625 20.328125 23.5390625 20.328125 24.5390625 21.328125 C24.6369682 22.82550624 24.66881114 24.32755392 24.6640625 25.828125 C24.66792969 27.05015625 24.66792969 27.05015625 24.671875 28.296875 C24.5390625 30.328125 24.5390625 30.328125 23.5390625 31.328125 C22.0503439 31.41481932 20.5576175 31.43515994 19.06640625 31.42578125 C18.16728516 31.42255859 17.26816406 31.41933594 16.34179688 31.41601562 C15.39626953 31.40763672 14.45074219 31.39925781 13.4765625 31.390625 C12.52716797 31.38611328 11.57777344 31.38160156 10.59960938 31.37695312 C8.24603185 31.3651261 5.89257773 31.34864525 3.5390625 31.328125 C3.55066406 32.61589844 3.56226563 33.90367187 3.57421875 35.23046875 C3.5835952 36.90885272 3.59269555 38.58723826 3.6015625 40.265625 C3.60994141 41.11576172 3.61832031 41.96589844 3.62695312 42.84179688 C3.63017578 43.65068359 3.63339844 44.45957031 3.63671875 45.29296875 C3.64195557 46.0418335 3.64719238 46.79069824 3.65258789 47.56225586 C3.5390625 49.328125 3.5390625 49.328125 2.5390625 50.328125 C0.68618748 50.40039002 -1.16927628 50.4119372 -3.0234375 50.390625 C-4.03535156 50.38160156 -5.04726563 50.37257813 -6.08984375 50.36328125 C-7.26353516 50.34587891 -7.26353516 50.34587891 -8.4609375 50.328125 C-9.38415734 47.55846549 -9.59656203 45.85753598 -9.62207031 42.99609375 C-9.63167786 42.12509033 -9.6412854 41.25408691 -9.65118408 40.35668945 C-9.65543396 39.41913818 -9.65968384 38.48158691 -9.6640625 37.515625 C-9.67261261 36.06772583 -9.67261261 36.06772583 -9.68133545 34.59057617 C-9.69078035 32.54965307 -9.69731741 30.50871475 -9.70117188 28.46777344 C-9.71089986 25.34022659 -9.74193716 22.21333073 -9.7734375 19.0859375 C-9.77996543 17.10417057 -9.78521672 15.12239895 -9.7890625 13.140625 C-9.8014093 12.20307373 -9.8137561 11.26552246 -9.82647705 10.29956055 C-9.82347595 9.42855713 -9.82047485 8.55755371 -9.81738281 7.66015625 C-9.82102844 6.89421143 -9.82467407 6.1282666 -9.82843018 5.33911133 C-8.8277401 -0.13684559 -4.7889127 -0.03833774 0 0 Z " fill="#F3C881" transform="translate(394.4609375,364.671875)"/>
<path d="M0 0 C0.74472061 -0.00095673 1.48944122 -0.00191345 2.25672913 -0.00289917 C3.83285608 -0.00358007 5.40898584 -0.00173205 6.98510742 0.00244141 C9.3970369 0.00778344 11.80877952 0.0024973 14.22070312 -0.00390625 C15.75130249 -0.0032453 17.28190175 -0.0019638 18.8125 0 C19.53445053 -0.00202423 20.25640106 -0.00404846 21.00022888 -0.00613403 C24.09869883 0.00835637 26.50965213 0.14514446 29.47265625 1.1328125 C29.47265625 4.7628125 29.47265625 8.3928125 29.47265625 12.1328125 C25.18265625 12.1328125 20.89265625 12.1328125 16.47265625 12.1328125 C16.48051147 13.75292236 16.48051147 13.75292236 16.48852539 15.40576172 C16.50659733 19.40510228 16.51809632 23.40443922 16.52758789 27.40380859 C16.53262307 29.13623664 16.53945157 30.86866042 16.5480957 32.60107422 C16.5601969 35.08822683 16.56589263 37.57532337 16.5703125 40.0625 C16.57547379 40.83963348 16.58063507 41.61676697 16.58595276 42.41744995 C16.58652796 47.90506909 16.58652796 47.90506909 15.47265625 50.1328125 C11.84265625 50.1328125 8.21265625 50.1328125 4.47265625 50.1328125 C4.47265625 37.5928125 4.47265625 25.0528125 4.47265625 12.1328125 C-0.14734375 12.1328125 -4.76734375 12.1328125 -9.52734375 12.1328125 C-9.52734375 8.5028125 -9.52734375 4.8728125 -9.52734375 1.1328125 C-6.48905791 -0.38633042 -3.33197858 -0.0093162 0 0 Z " fill="#F6C980" transform="translate(454.52734375,364.8671875)"/>
<path d="M0 0 C0.66 0.33 1.32 0.66 2 1 C2.0252689 7.81761894 2.04283244 14.63522589 2.05493164 21.45288086 C2.05997333 23.77417451 2.06680651 26.09546497 2.07543945 28.41674805 C2.08751225 31.74528795 2.09322979 35.07378602 2.09765625 38.40234375 C2.10281754 39.44712387 2.10797882 40.49190399 2.11329651 41.56834412 C2.11337204 42.52926468 2.11344757 43.49018524 2.11352539 44.48022461 C2.115746 45.33071884 2.11796661 46.18121307 2.12025452 47.05747986 C2 49 2 49 1 50 C-0.83115883 50.09851171 -2.66619933 50.12972629 -4.5 50.125 C-5.5003125 50.12757813 -6.500625 50.13015625 -7.53125 50.1328125 C-10 50 -10 50 -11 49 C-11.10860254 47.53762973 -11.14902169 46.07010715 -11.16113281 44.60375977 C-11.17074036 43.66931534 -11.1803479 42.73487091 -11.19024658 41.77210999 C-11.19449646 40.75547775 -11.19874634 39.73884552 -11.203125 38.69140625 C-11.20882507 37.65435043 -11.21452515 36.61729462 -11.22039795 35.54881287 C-11.22986348 33.35050482 -11.23638807 31.15218248 -11.24023438 28.95385742 C-11.2499487 25.58031652 -11.2809614 22.20738233 -11.3125 18.83398438 C-11.31902872 16.70312864 -11.3242797 14.57226852 -11.328125 12.44140625 C-11.3404718 11.42679825 -11.3528186 10.41219025 -11.36553955 9.36683655 C-11.36253845 8.42923996 -11.35953735 7.49164337 -11.35644531 6.52563477 C-11.36009094 5.69814224 -11.36373657 4.87064972 -11.36749268 4.01808167 C-11.24622009 3.35211472 -11.12494751 2.68614777 -11 2 C-6.94641576 -0.70238949 -4.81689896 -0.22937614 0 0 Z " fill="#F5C980" transform="translate(177,365)"/>
<path d="M0 0 C0.99 0.33 1.98 0.66 3 1 C3.0252689 7.81761894 3.04283244 14.63522589 3.05493164 21.45288086 C3.05997333 23.77417451 3.06680651 26.09546497 3.07543945 28.41674805 C3.08751225 31.74528795 3.09322979 35.07378602 3.09765625 38.40234375 C3.10281754 39.44712387 3.10797882 40.49190399 3.11329651 41.56834412 C3.11337204 42.52926468 3.11344757 43.49018524 3.11352539 44.48022461 C3.115746 45.33071884 3.11796661 46.18121307 3.12025452 47.05747986 C3 49 3 49 2 50 C-1.63 50 -5.26 50 -9 50 C-9 33.83 -9 17.66 -9 1 C-6.01002175 -0.49498913 -3.29957225 -0.11577446 0 0 Z " fill="#F5CA83" transform="translate(354,365)"/>
<path d="M0 0 C0.66 0.33 1.32 0.66 2 1 C1.67 15.85 1.34 30.7 1 46 C-2.465 45.505 -2.465 45.505 -6 45 C-7.27870505 42.44258991 -7.0291587 40.26798506 -6.9375 37.4609375 C-7.02648512 33.95714821 -7.56526829 30.47785366 -8 27 C-13.94 27 -19.88 27 -26 27 C-26 26.34 -26 25.68 -26 25 C-26.66 24.67 -27.32 24.34 -28 24 C-27.67 23.01 -27.34 22.02 -27 21 C-27.66 20.34 -28.32 19.68 -29 19 C-22.4 19 -15.8 19 -9 19 C-9 13.06 -9 7.12 -9 1 C-5.77390955 -0.07536348 -3.37822416 -0.14375422 0 0 Z " fill="#F5C87F" transform="translate(314,367)"/>
<path d="M0 0 C0.99 0 1.98 0 3 0 C6.46092165 5.80541696 8.14381816 9.65018955 8.125 16.5 C8.12886719 17.90765625 8.12886719 17.90765625 8.1328125 19.34375 C8.01392868 21.7214263 7.67551722 23.72683096 7 26 C6.34 26 5.68 26 5 26 C4.89429688 26.58394531 4.78859375 27.16789062 4.6796875 27.76953125 C3.90391257 30.3153214 2.86680797 31.69005355 1.125 33.6875 C0.61195313 34.28949219 0.09890625 34.89148438 -0.4296875 35.51171875 C-2 37 -2 37 -5 38 C-5.33 38.66 -5.66 39.32 -6 40 C-11.28 40 -16.56 40 -22 40 C-22 39.34 -22 38.68 -22 38 C-22.99 37.67 -23.98 37.34 -25 37 C-19.26884891 33.40476401 -14.78982507 31.37035409 -8 31 C-7.30580437 29.34461042 -6.64896236 27.67363977 -6 26 C-5.71253906 25.34515625 -5.42507812 24.6903125 -5.12890625 24.015625 C-2.65511385 17.81465204 -3.15781454 13.34825062 -5 7 C-5.66 7 -6.32 7 -7 7 C-7 6.34 -7 5.68 -7 5 C-7.66 4.67 -8.32 4.34 -9 4 C-6.03 4.495 -6.03 4.495 -3 5 C-2.67 4.01 -2.34 3.02 -2 2 C-1.34 2 -0.68 2 0 2 C0 1.34 0 0.68 0 0 Z " fill="#F5CA81" transform="translate(130,374)"/>
<path d="M0 0 C1.42598763 -0.00422974 1.42598763 -0.00422974 2.88078308 -0.00854492 C3.92708389 -0.00652069 4.9733847 -0.00449646 6.0513916 -0.00241089 C7.15062454 -0.00416321 8.24985748 -0.00591553 9.38240051 -0.00772095 C13.03054362 -0.01213668 16.67863859 -0.00920243 20.32678223 -0.00582886 C22.85262054 -0.00650198 25.37845879 -0.00747207 27.90429688 -0.00872803 C33.2038236 -0.01020462 38.50333293 -0.00814648 43.80285645 -0.00338745 C49.93426361 0.00205495 56.06563753 0.00029221 62.1970439 -0.00521386 C68.08956143 -0.01029409 73.9820686 -0.00976215 79.87458801 -0.00683212 C82.38491317 -0.00616314 84.89523918 -0.00699029 87.40556335 -0.00931168 C90.90862301 -0.01183986 94.41161804 -0.00799521 97.91467285 -0.00241089 C99.48412407 -0.00544724 99.48412407 -0.00544724 101.08528137 -0.00854492 C102.03593979 -0.0057251 102.98659821 -0.00290527 103.96606445 0 C104.79492409 0.00037703 105.62378372 0.00075405 106.47776031 0.0011425 C108.48303223 0.12698364 108.48303223 0.12698364 110.48303223 1.12698364 C110.48303223 47.32698364 110.48303223 93.52698364 110.48303223 141.12698364 C110.15303223 141.12698364 109.82303223 141.12698364 109.48303223 141.12698364 C109.3081879 129.58543068 109.14209398 118.04376479 108.98303223 106.50198364 C108.97115498 105.64050846 108.95927773 104.77903328 108.94704056 103.89145279 C108.4824915 69.96489961 108.40205165 36.05784722 108.48303223 2.12698364 C72.51303223 2.12698364 36.54303223 2.12698364 -0.51696777 2.12698364 C-0.18696777 3.44698364 0.14303223 4.76698364 0.48303223 6.12698364 C2.13303223 6.45698364 3.78303223 6.78698364 5.48303223 7.12698364 C5.48303223 7.78698364 5.48303223 8.44698364 5.48303223 9.12698364 C0.87874289 7.8114724 -2.70017166 6.03501878 -6.51696777 3.12698364 C-6.51696777 2.46698364 -6.51696777 1.80698364 -6.51696777 1.12698364 C-4.12808622 -0.06745713 -2.66661101 0.00121297 0 0 Z " fill="#F8EBCC" transform="translate(287.5169677734375,28.873016357421875)"/>
<path d="M0 0 C0.66 0.99 1.32 1.98 2 3 C-1.63 3 -5.26 3 -9 3 C-9 4.32 -9 5.64 -9 7 C-5.6721093 9.2185938 -2.5679511 9.95999225 1.25 10.875 C13.84149101 14.09950355 13.84149101 14.09950355 18 19.6875 C19.33192039 24.09948629 19.41794055 27.59371161 18 32 C16.25779749 34.62774191 14.28122306 36.83039642 12 39 C10.515 38.505 10.515 38.505 9 38 C9.99 37.505 9.99 37.505 11 37 C11 36.34 11 35.68 11 35 C11.99 35 12.98 35 14 35 C14 34.34 14 33.68 14 33 C14.66 33 15.32 33 16 33 C16.08114106 31.22992286 16.13925505 29.45877902 16.1875 27.6875 C16.22230469 26.70136719 16.25710937 25.71523438 16.29296875 24.69921875 C16.21785063 21.99957914 16.21785063 21.99957914 14.71875 20.15625 C11.95246295 18.29529326 9.22735087 18.81731976 6 19 C6.33 19.99 6.66 20.98 7 22 C7.66 22.33 8.32 22.66 9 23 C9 24.98 9 26.96 9 29 C3.85244907 32.13293435 -0.05250622 32.37993835 -5.875 32.1875 C-7.050625 32.16719727 -7.050625 32.16719727 -8.25 32.14648438 C-10.16696782 32.11141789 -12.08357751 32.05762072 -14 32 C-14 31.34 -14 30.68 -14 30 C-14.928125 29.566875 -14.928125 29.566875 -15.875 29.125 C-18 28 -18 28 -20 26 C-17.9375 25.25 -17.9375 25.25 -15 25 C-13.28066654 25.97320762 -11.56352676 26.95288754 -9.890625 28.00390625 C-4.90138706 30.63253368 0.62435471 30.20952019 6 29 C5.97336635 27.03469468 5.97336635 27.03469468 5 25 C2.26962473 23.72931422 2.26962473 23.72931422 -1.0625 22.9375 C-2.238125 22.60621094 -3.41375 22.27492188 -4.625 21.93359375 C-5.73875 21.62550781 -6.8525 21.31742187 -8 21 C-12.87071072 19.48551339 -16.65708215 18.03935906 -20 14 C-19.34 13.67 -18.68 13.34 -18 13 C-17.01 13.66 -16.02 14.32 -15 15 C-12.84725052 14.69159401 -12.84725052 14.69159401 -11 14 C-11 13.34 -11 12.68 -11 12 C-8.69 12.33 -6.38 12.66 -4 13 C-4 12.67 -4 12.34 -4 12 C-6.31 11.01 -8.62 10.02 -11 9 C-11 6.36 -11 3.72 -11 1 C-7.30992118 -0.18082522 -3.85119054 -0.28527337 0 0 Z " fill="#F2CE90" transform="translate(228,374)"/>
<path d="M0 0 C0.7940625 -0.01417969 1.588125 -0.02835937 2.40625 -0.04296875 C4.5 0.1875 4.5 0.1875 6.5 2.1875 C6.72705078 4.06689453 6.72705078 4.06689453 6.6953125 6.3203125 C6.68564453 7.52880859 6.68564453 7.52880859 6.67578125 8.76171875 C6.65902344 9.60347656 6.64226562 10.44523437 6.625 11.3125 C6.61597656 12.16199219 6.60695313 13.01148438 6.59765625 13.88671875 C6.57405647 15.98709884 6.53818483 18.08733444 6.5 20.1875 C6.17 20.1875 5.84 20.1875 5.5 20.1875 C5.5 14.5775 5.5 8.9675 5.5 3.1875 C2.2 2.8575 -1.1 2.5275 -4.5 2.1875 C-4.5 17.3675 -4.5 32.5475 -4.5 48.1875 C-1.53 48.1875 1.44 48.1875 4.5 48.1875 C4.32726562 47.50171875 4.15453125 46.8159375 3.9765625 46.109375 C3.42986639 42.75750048 3.59192612 39.81908532 3.875 36.4375 C3.96523438 35.28765625 4.05546875 34.1378125 4.1484375 32.953125 C4.5 30.1875 4.5 30.1875 5.5 29.1875 C7.13472882 29.10049658 8.77314055 29.08048937 10.41015625 29.08984375 C11.89418945 29.09467773 11.89418945 29.09467773 13.40820312 29.09960938 C14.44912109 29.10798828 15.49003906 29.11636719 16.5625 29.125 C18.12967773 29.13176758 18.12967773 29.13176758 19.72851562 29.13867188 C22.3190666 29.15050087 24.90950559 29.16698311 27.5 29.1875 C27.83565005 30.75676804 28.16517446 32.32734692 28.4921875 33.8984375 C28.6763623 34.77290527 28.86053711 35.64737305 29.05029297 36.54833984 C29.66561966 40.15945901 29.63537589 43.53235086 29.5 47.1875 C31.48 47.1875 33.46 47.1875 35.5 47.1875 C35.83 36.6275 36.16 26.0675 36.5 15.1875 C38.56993069 19.32736138 38.74680874 21.09198391 38.73046875 25.59765625 C38.72853516 26.83451172 38.72660156 28.07136719 38.72460938 29.34570312 C38.70624023 31.27833008 38.70624023 31.27833008 38.6875 33.25 C38.68685547 34.54228516 38.68621094 35.83457031 38.68554688 37.16601562 C38.64047619 46.76607143 38.64047619 46.76607143 37.5 50.1875 C33.87 50.1875 30.24 50.1875 26.5 50.1875 C24.84714041 46.88178083 25.3994882 43.192122 25.4375 39.5625 C25.458125 36.79875 25.47875 34.035 25.5 31.1875 C19.23 31.1875 12.96 31.1875 6.5 31.1875 C6.53952149 36.6921882 6.53952149 36.6921882 6.59008789 42.19677734 C6.61111111 47.96527778 6.61111111 47.96527778 5.5 50.1875 C3.68757948 50.21437279 1.87504767 50.23383715 0.0625 50.25 C-0.94683594 50.26160156 -1.95617187 50.27320313 -2.99609375 50.28515625 C-5.5 50.1875 -5.5 50.1875 -6.5 49.1875 C-6.59311889 47.68331261 -6.61746028 46.17478644 -6.61352539 44.66772461 C-6.61344986 43.70680405 -6.61337433 42.74588348 -6.61329651 41.75584412 C-6.60813522 40.711064 -6.60297394 39.66628387 -6.59765625 38.58984375 C-6.5962413 37.52584854 -6.59482635 36.46185333 -6.59336853 35.36561584 C-6.58775064 31.95204917 -6.57519511 28.538547 -6.5625 25.125 C-6.55748731 22.81705824 -6.552924 20.50911545 -6.54882812 18.20117188 C-6.5377754 12.52992574 -6.52101987 6.85871747 -6.5 1.1875 C-4.14653604 0.01076802 -2.6193967 0.02126134 0 0 Z " fill="#ECD1A0" transform="translate(278.5,364.8125)"/>
<path d="M0 0 C1.00792603 -0.0071553 2.01585205 -0.01431061 3.05432129 -0.02168274 C4.72723488 -0.02571609 4.72723488 -0.02571609 6.4339447 -0.02983093 C7.60142242 -0.03640213 8.76890015 -0.04297333 9.97175598 -0.04974365 C13.1849427 -0.06611899 16.39809526 -0.07771469 19.61131215 -0.08594918 C21.61999155 -0.09109712 23.62866632 -0.09717318 25.63734245 -0.10346031 C31.92498173 -0.1225268 38.21260921 -0.13675051 44.50027186 -0.14507228 C51.75173502 -0.1548281 59.00289157 -0.18109768 66.25424677 -0.22157317 C71.86114221 -0.25179138 77.46795011 -0.26654684 83.07492536 -0.26985329 C86.42214845 -0.27219888 89.76878558 -0.2830786 93.1159687 -0.30631447 C96.85762466 -0.33066765 100.5984837 -0.32974682 104.3401947 -0.32279968 C105.44130081 -0.33560974 106.54240692 -0.3484198 107.67687988 -0.36161804 C114.35365192 -0.31650383 118.60956003 0.67258385 124.33995056 4.14717102 C122.52745056 4.77217102 122.52745056 4.77217102 120.33995056 5.14717102 C119.34995056 4.48717102 118.35995056 3.82717102 117.33995056 3.14717102 C115.0529335 2.84623413 115.0529335 2.84623413 112.47494507 2.89320374 C111.47242706 2.88756409 110.46990906 2.88192444 109.43701172 2.87611389 C108.33820175 2.88016235 107.23939178 2.88421082 106.10728455 2.88838196 C104.94938416 2.88487732 103.79148376 2.88137268 102.59849548 2.87776184 C98.76095126 2.86894008 94.9235905 2.87479498 91.08604431 2.88154602 C88.4271115 2.88019959 85.76818433 2.87826254 83.10925293 2.87574768 C77.53321839 2.87210853 71.95723683 2.87690631 66.38121033 2.88642883 C59.92994555 2.89731865 53.47880712 2.89378383 47.02754539 2.88277602 C41.49203198 2.87370804 35.95655665 2.8724153 30.42103821 2.87765336 C27.11334398 2.88077509 23.80572237 2.88039419 20.49802971 2.87458038 C16.81300575 2.86952487 13.12822761 2.87721158 9.44322205 2.88838196 C8.34238785 2.8843335 7.24155365 2.88028503 6.10736084 2.87611389 C5.10766266 2.88175354 4.10796448 2.88739319 3.07797241 2.89320374 C2.20616553 2.89395779 1.33435865 2.89471184 0.43613338 2.89548874 C-1.87928056 2.95455571 -1.87928056 2.95455571 -3.66004944 5.14717102 C-3.99002391 7.20624299 -3.99002391 7.20624299 -3.97889709 9.59687805 C-3.99876678 10.51768158 -4.01863647 11.43848511 -4.03910828 12.38719177 C-4.05065948 13.38306305 -4.06221069 14.37893433 -4.07411194 15.40498352 C-4.09347809 16.42317169 -4.11284424 17.44135986 -4.13279724 18.49040222 C-4.19270298 21.75090591 -4.23902242 25.01144469 -4.28504944 28.27217102 C-4.32321909 30.47921789 -4.36227021 32.68624971 -4.40223694 34.89326477 C-4.49841338 40.31110013 -4.58342843 45.72902575 -4.66004944 51.14717102 C-3.52502991 51.33472961 -3.52502991 51.33472961 -2.36708069 51.52607727 C1.16391629 52.33621943 3.48499615 53.9561595 6.33995056 56.14717102 C6.33995056 56.80717102 6.33995056 57.46717102 6.33995056 58.14717102 C2.02950546 56.57973644 -1.70472639 54.43930169 -5.66004944 52.14717102 C-5.68531683 44.90230551 -5.70288124 37.65745128 -5.71498108 30.41255188 C-5.720023 27.94575069 -5.72685634 25.4789525 -5.73548889 23.01216125 C-5.74756069 19.47512573 -5.753279 15.93812957 -5.75770569 12.40107727 C-5.76286697 11.29067581 -5.76802826 10.18027435 -5.77334595 9.03622437 C-5.77342148 8.01524155 -5.77349701 6.99425873 -5.77357483 5.94233704 C-5.77579544 5.03854813 -5.77801605 4.13475922 -5.78030396 3.20358276 C-5.55141873 -0.71046786 -3.40623272 0.01652298 0 0 Z " fill="#F3E0BF" transform="translate(109.66004943847656,28.852828979492188)"/>
<path d="M0 0 C0.33 0 0.66 0 1 0 C1.02465288 4.68139254 1.04283739 9.36274759 1.05493164 14.04418945 C1.05997157 15.63794614 1.0668035 17.23169819 1.07543945 18.82543945 C1.08751999 21.11150253 1.09323155 23.39750467 1.09765625 25.68359375 C1.10281754 26.40026718 1.10797882 27.11694061 1.11329651 27.85533142 C1.11349263 29.57063672 1.06192007 31.28581266 1 33 C0 34 0 34 -3.5625 34.0625 C-4.696875 34.041875 -5.83125 34.02125 -7 34 C-7.04939662 30.04903022 -7.08571755 26.0981797 -7.10986328 22.14697266 C-7.12488107 20.1408864 -7.15028981 18.13488676 -7.17578125 16.12890625 C-7.18544922 14.24365234 -7.18544922 14.24365234 -7.1953125 12.3203125 C-7.20578613 11.15773926 -7.21625977 9.99516602 -7.22705078 8.79736328 C-7 6 -7 6 -5 4 C-4.319375 3.855625 -3.63875 3.71125 -2.9375 3.5625 C-1.9784375 3.2840625 -1.9784375 3.2840625 -1 3 C-0.67 2.01 -0.34 1.02 0 0 Z " fill="#F7CA7E" transform="translate(468,378)"/>
<path d="M0 0 C0.66 0.33 1.32 0.66 2 1 C2.0252689 7.81761894 2.04283244 14.63522589 2.05493164 21.45288086 C2.05997333 23.77417451 2.06680651 26.09546497 2.07543945 28.41674805 C2.08751225 31.74528795 2.09322979 35.07378602 2.09765625 38.40234375 C2.10281754 39.44712387 2.10797882 40.49190399 2.11329651 41.56834412 C2.11337204 42.52926468 2.11344757 43.49018524 2.11352539 44.48022461 C2.115746 45.33071884 2.11796661 46.18121307 2.12025452 47.05747986 C2 49 2 49 1 50 C-0.83115883 50.09851171 -2.66619933 50.12972629 -4.5 50.125 C-5.5003125 50.12757813 -6.500625 50.13015625 -7.53125 50.1328125 C-10 50 -10 50 -11 49 C-11.10860254 47.53762973 -11.14902169 46.07010715 -11.16113281 44.60375977 C-11.17074036 43.66931534 -11.1803479 42.73487091 -11.19024658 41.77210999 C-11.19449646 40.75547775 -11.19874634 39.73884552 -11.203125 38.69140625 C-11.20882507 37.65435043 -11.21452515 36.61729462 -11.22039795 35.54881287 C-11.22986348 33.35050482 -11.23638807 31.15218248 -11.24023438 28.95385742 C-11.2499487 25.58031652 -11.2809614 22.20738233 -11.3125 18.83398438 C-11.31902872 16.70312864 -11.3242797 14.57226852 -11.328125 12.44140625 C-11.3404718 11.42679825 -11.3528186 10.41219025 -11.36553955 9.36683655 C-11.36253845 8.42923996 -11.35953735 7.49164337 -11.35644531 6.52563477 C-11.36009094 5.69814224 -11.36373657 4.87064972 -11.36749268 4.01808167 C-11.24622009 3.35211472 -11.12494751 2.68614777 -11 2 C-6.94641576 -0.70238949 -4.81689896 -0.22937614 0 0 Z M-9 2 C-9 17.18 -9 32.36 -9 48 C-6.03 48 -3.06 48 0 48 C0.024644 41.60962203 0.04283317 35.21927148 0.05493164 28.82885742 C0.05997308 26.65307127 0.06680607 24.47728853 0.07543945 22.30151367 C0.08751338 19.18146933 0.09323005 16.06146962 0.09765625 12.94140625 C0.10281754 11.96224747 0.10797882 10.98308868 0.11329651 9.97425842 C0.11337204 9.07340012 0.11344757 8.17254181 0.11352539 7.24438477 C0.115746 6.44718521 0.11796661 5.64998566 0.12025452 4.82862854 C0.20050456 2.98077719 0.20050456 2.98077719 -1 2 C-3.64 2 -6.28 2 -9 2 Z " fill="#F1D8B0" transform="translate(177,365)"/>
<path d="M0 0 C0.7940625 -0.01417969 1.588125 -0.02835937 2.40625 -0.04296875 C4.5 0.1875 4.5 0.1875 6.5 2.1875 C6.72705078 4.06689453 6.72705078 4.06689453 6.6953125 6.3203125 C6.68564453 7.52880859 6.68564453 7.52880859 6.67578125 8.76171875 C6.65902344 9.60347656 6.64226562 10.44523437 6.625 11.3125 C6.61597656 12.16199219 6.60695313 13.01148438 6.59765625 13.88671875 C6.57405647 15.98709884 6.53818483 18.08733444 6.5 20.1875 C6.17 20.1875 5.84 20.1875 5.5 20.1875 C5.5 14.5775 5.5 8.9675 5.5 3.1875 C2.2 2.8575 -1.1 2.5275 -4.5 2.1875 C-4.5 17.3675 -4.5 32.5475 -4.5 48.1875 C-1.53 48.1875 1.44 48.1875 4.5 48.1875 C4.335 47.506875 4.17 46.82625 4 46.125 C3.42910941 42.7710178 3.43340977 39.58360195 3.5 36.1875 C4.16 36.1875 4.82 36.1875 5.5 36.1875 C5.5 34.5375 5.5 32.8875 5.5 31.1875 C5.83 31.1875 6.16 31.1875 6.5 31.1875 C6.52690104 33.97923055 6.54679053 36.77070348 6.5625 39.5625 C6.57087891 40.3565625 6.57925781 41.150625 6.58789062 41.96875 C6.61328125 47.9609375 6.61328125 47.9609375 5.5 50.1875 C3.68757948 50.21437279 1.87504767 50.23383715 0.0625 50.25 C-0.94683594 50.26160156 -1.95617187 50.27320313 -2.99609375 50.28515625 C-5.5 50.1875 -5.5 50.1875 -6.5 49.1875 C-6.59311889 47.68331261 -6.61746028 46.17478644 -6.61352539 44.66772461 C-6.61344986 43.70680405 -6.61337433 42.74588348 -6.61329651 41.75584412 C-6.60813522 40.711064 -6.60297394 39.66628387 -6.59765625 38.58984375 C-6.5962413 37.52584854 -6.59482635 36.46185333 -6.59336853 35.36561584 C-6.58775064 31.95204917 -6.57519511 28.538547 -6.5625 25.125 C-6.55748731 22.81705824 -6.552924 20.50911545 -6.54882812 18.20117188 C-6.5377754 12.52992574 -6.52101987 6.85871747 -6.5 1.1875 C-4.14653604 0.01076802 -2.6193967 0.02126134 0 0 Z " fill="#F1D7AE" transform="translate(278.5,364.8125)"/>
<path d="M0 0 C1.27939453 -0.00128906 2.55878906 -0.00257813 3.87695312 -0.00390625 C4.54557373 -0.00181152 5.21419434 0.0002832 5.90307617 0.00244141 C7.93090394 0.00776442 9.9585075 0.002507 11.98632812 -0.00390625 C13.9112207 -0.00197266 13.9112207 -0.00197266 15.875 0 C17.05102783 0.00112793 18.22705566 0.00225586 19.4387207 0.00341797 C22.63671875 0.1328125 22.63671875 0.1328125 27.63671875 1.1328125 C27.63671875 4.7628125 27.63671875 8.3928125 27.63671875 12.1328125 C19.71671875 12.1328125 11.79671875 12.1328125 3.63671875 12.1328125 C3.63671875 14.7728125 3.63671875 17.4128125 3.63671875 20.1328125 C4.23734131 20.12757568 4.83796387 20.12233887 5.45678711 20.11694336 C8.16258713 20.09623236 10.86837052 20.08317125 13.57421875 20.0703125 C14.51974609 20.06193359 15.46527344 20.05355469 16.43945312 20.04492188 C17.78813477 20.04008789 17.78813477 20.04008789 19.1640625 20.03515625 C20.41304321 20.02730103 20.41304321 20.02730103 21.68725586 20.01928711 C23.63671875 20.1328125 23.63671875 20.1328125 24.63671875 21.1328125 C24.70851839 22.65209288 24.72063882 24.17448732 24.69921875 25.6953125 C24.69019531 26.52160156 24.68117188 27.34789062 24.671875 28.19921875 C24.66027344 28.83730469 24.64867187 29.47539062 24.63671875 30.1328125 C23.64671875 30.6278125 23.64671875 30.6278125 22.63671875 31.1328125 C22.63671875 27.8328125 22.63671875 24.5328125 22.63671875 21.1328125 C15.70671875 21.1328125 8.77671875 21.1328125 1.63671875 21.1328125 C1.63671875 17.8328125 1.63671875 14.5328125 1.63671875 11.1328125 C4.97184249 10.29903157 7.26116107 10.01466886 10.62109375 10.03515625 C11.55566406 10.03837891 12.49023438 10.04160156 13.453125 10.04492188 C14.42121094 10.05330078 15.38929688 10.06167969 16.38671875 10.0703125 C17.86205078 10.07708008 17.86205078 10.07708008 19.3671875 10.08398438 C21.79042666 10.09574767 24.21354148 10.11218566 26.63671875 10.1328125 C26.63671875 8.1528125 26.63671875 6.1728125 26.63671875 4.1328125 C22.90361442 2.94463282 19.3618023 3.01918511 15.46484375 3.03515625 C14.44121735 3.03727867 14.44121735 3.03727867 13.39691162 3.03944397 C11.22680191 3.04502166 9.05679705 3.05756996 6.88671875 3.0703125 C5.41145983 3.07533039 3.93619928 3.07989279 2.4609375 3.08398438 C-1.14716923 3.09498375 -4.755215 3.11223297 -8.36328125 3.1328125 C-8.36328125 2.4728125 -8.36328125 1.8128125 -8.36328125 1.1328125 C-5.53806211 -0.27979707 -3.15614515 0.0030358 0 0 Z " fill="#EAD6B1" transform="translate(394.36328125,364.8671875)"/>
<path d="M0 0 C4.78718692 -0.02471738 9.5743367 -0.04286825 14.36157227 -0.05493164 C15.99015958 -0.05996065 17.61874237 -0.06678465 19.24731445 -0.07543945 C21.58806472 -0.08756769 23.9287553 -0.09324263 26.26953125 -0.09765625 C26.99775589 -0.10281754 27.72598053 -0.10797882 28.47627258 -0.11329651 C31.59602288 -0.11364279 34.01633188 0.00544396 37 1 C37 4.63 37 8.26 37 12 C32.71 12 28.42 12 24 12 C24 23.88 24 35.76 24 48 C23.67 48 23.34 48 23 48 C23 35.46 23 22.92 23 10 C27.29 10 31.58 10 36 10 C35.505 7.525 35.505 7.525 35 5 C23.47798228 2.44781113 11.74981788 2.36736848 0 2 C0 1.34 0 0.68 0 0 Z " fill="#EEDEBC" transform="translate(447,365)"/>
<path d="M0 0 C0.33 0 0.66 0 1 0 C1 25.41 1 50.82 1 77 C-3.19075691 76.16184862 -5.28073843 75.49330151 -8.8125 73.4375 C-9.60269531 72.98246094 -10.39289063 72.52742188 -11.20703125 72.05859375 C-12.09455078 71.53458984 -12.09455078 71.53458984 -13 71 C-13 70.67 -13 70.34 -13 70 C-10.36 69.67 -7.72 69.34 -5 69 C-5 69.99 -5 70.98 -5 72 C-3.68 72.66 -2.36 73.32 -1 74 C-1.00785522 72.50279419 -1.00785522 72.50279419 -1.01586914 70.9753418 C-1.12868085 47.2955768 -0.83747822 23.66544186 0 0 Z " fill="#ECCD9F" transform="translate(396,93)"/>
<path d="M0 0 C1.77074917 -0.02705729 3.54161711 -0.04642195 5.3125 -0.0625 C6.29863281 -0.07410156 7.28476563 -0.08570313 8.30078125 -0.09765625 C11 0 11 0 14 1 C14 1.66 14 2.32 14 3 C15.175625 2.9071875 15.175625 2.9071875 16.375 2.8125 C17.674375 2.9053125 17.674375 2.9053125 19 3 C21 6 21 6 21 9 C20.34 9 19.68 9 19 9 C19 9.66 19 10.32 19 11 C12.98673249 10.42085333 6.99107278 9.77662055 1 9 C1.7734375 7.824375 1.7734375 7.824375 2.5625 6.625 C3.036875 5.75875 3.51125 4.8925 4 4 C3.04134491 1.66924071 3.04134491 1.66924071 0 0 Z " fill="#F4CA81" transform="translate(221,367)"/>
<path d="M0 0 C0.99 0.33 1.98 0.66 3 1 C3.0252689 7.81761894 3.04283244 14.63522589 3.05493164 21.45288086 C3.05997333 23.77417451 3.06680651 26.09546497 3.07543945 28.41674805 C3.08751225 31.74528795 3.09322979 35.07378602 3.09765625 38.40234375 C3.10281754 39.44712387 3.10797882 40.49190399 3.11329651 41.56834412 C3.11337204 42.52926468 3.11344757 43.49018524 3.11352539 44.48022461 C3.115746 45.33071884 3.11796661 46.18121307 3.12025452 47.05747986 C3 49 3 49 2 50 C-1.63 50 -5.26 50 -9 50 C-9 33.83 -9 17.66 -9 1 C-6.01002175 -0.49498913 -3.29957225 -0.11577446 0 0 Z M-8 3 C-8 17.85 -8 32.7 -8 48 C-0.81989159 48.59628479 -0.81989159 48.59628479 2 47 C2 32.48 2 17.96 2 3 C-1.23325019 1.38337491 -4.76674981 1.38337491 -8 3 Z " fill="#E2CCA1" transform="translate(354,365)"/>
<path d="M0 0 C1.32 0.33 2.64 0.66 4 1 C3.505 1.66 3.01 2.32 2.5 3 C0.62735548 6.74528904 0.40873358 9.92505574 1 14 C2.55515223 18.12115342 4.05461359 20.91771273 8 23 C13.65323318 24.41330829 17.55630911 23.62355693 23 22 C22.67 22.99 22.34 23.98 22 25 C19.92578125 25.87890625 19.92578125 25.87890625 17.3125 26.5625 C15.96478516 26.92988281 15.96478516 26.92988281 14.58984375 27.3046875 C13.30787109 27.64886719 13.30787109 27.64886719 12 28 C9.99657266 28.65629516 7.99468882 29.31760646 6 30 C5.87625 29.2575 5.7525 28.515 5.625 27.75 C5.0219893 25.09675291 4.58015541 23.21221757 3 21 C1.35 20.67 -0.3 20.34 -2 20 C-2 14.06 -2 8.12 -2 2 C-1.34 2 -0.68 2 0 2 C0 1.34 0 0.68 0 0 Z " fill="#EFD49E" transform="translate(100,380)"/>
<path d="M0 0 C6.44002646 1.70471289 9.65252709 6.70929605 12.875 12.1875 C15.05063848 19.56049708 15.13592282 26.41323095 11.8125 33.4375 C8.31205047 39.5731194 4.49411976 43.13050522 -2 46 C-1.67 45.01 -1.34 44.02 -1 43 C0.485 42.505 0.485 42.505 2 42 C2.66 41.01 3.32 40.02 4 39 C4.66 39 5.32 39 6 39 C7.20628008 36.66785852 8.1654738 34.50357861 9 32 C9.66 32 10.32 32 11 32 C11.59438657 20.60884776 11.59438657 20.60884776 8 10 C7.87625 9.236875 7.7525 8.47375 7.625 7.6875 C7.10451964 5.68588592 7.10451964 5.68588592 4.4375 4.75 C3.633125 4.5025 2.82875 4.255 2 4 C2 3.34 2 2.68 2 2 C1.34 2 0.68 2 0 2 C0 1.34 0 0.68 0 0 Z " fill="#EBD3A6" transform="translate(126,368)"/>
<path d="M0 0 C0.78503906 -0.00257813 1.57007813 -0.00515625 2.37890625 -0.0078125 C4.4375 0.125 4.4375 0.125 6.4375 1.125 C7.49072266 3.22631836 7.49072266 3.22631836 8.6015625 5.96484375 C9.00117187 6.94517578 9.40078125 7.92550781 9.8125 8.93554688 C10.225 9.96744141 10.6375 10.99933594 11.0625 12.0625 C11.48273437 13.09052734 11.90296875 14.11855469 12.3359375 15.17773438 C15.4375 22.84604556 15.4375 22.84604556 15.4375 25.125 C14.7775 25.125 14.1175 25.125 13.4375 25.125 C10.49625809 21.28859751 9.41882912 17.02169245 8.18359375 12.4296875 C7.47637496 9.88921909 7.47637496 9.88921909 5.4375 7.125 C5.4375 6.135 5.4375 5.145 5.4375 4.125 C4.4475 4.125 3.4575 4.125 2.4375 4.125 C2.4375 3.465 2.4375 2.805 2.4375 2.125 C0.7875 2.785 -0.8625 3.445 -2.5625 4.125 C-2.2325 7.425 -1.9025 10.725 -1.5625 14.125 C-4.05044878 10.80773496 -5.09071942 9.12886091 -6.25 5.375 C-6.50136719 4.57578125 -6.75273437 3.7765625 -7.01171875 2.953125 C-7.19347656 2.34984375 -7.37523438 1.7465625 -7.5625 1.125 C-4.73533905 0.18261302 -2.93073877 -0.00965647 0 0 Z " fill="#EED3A2" transform="translate(23.5625,364.875)"/>
<path d="M0 0 C3.34925383 0.54851931 5.88284159 1.28418916 8.76953125 3.06640625 C9.43017578 3.46923828 10.09082031 3.87207031 10.77148438 4.28710938 C11.44501953 4.70798828 12.11855469 5.12886719 12.8125 5.5625 C13.50537109 5.98724609 14.19824219 6.41199219 14.91210938 6.84960938 C16.61216951 7.89309456 18.30665476 8.94565296 20 10 C19.34 10.66 18.68 11.32 18 12 C18 11.34 18 10.68 18 10 C17.401875 9.855625 16.80375 9.71125 16.1875 9.5625 C14.43849596 9.1127561 12.71322977 8.57107659 11 8 C11 7.34 11 6.68 11 6 C7.7 5.01 4.4 4.02 1 3 C1 15.21 1 27.42 1 40 C2.65 40.33 4.3 40.66 6 41 C6 41.66 6 42.32 6 43 C6.66 43 7.32 43 8 43 C8 43.66 8 44.32 8 45 C9.32 45.33 10.64 45.66 12 46 C12 46.66 12 47.32 12 48 C7.50238423 46.50079474 3.22233718 44.54229855 0 41 C-0.95652291 37.83349904 -0.8197927 34.82653094 -0.68359375 31.54296875 C-0.67368912 30.64000565 -0.66378448 29.73704254 -0.65357971 28.80671692 C-0.61449532 25.93196895 -0.52669106 23.0610868 -0.4375 20.1875 C-0.40237815 18.23508132 -0.37044067 16.28260259 -0.34179688 14.33007812 C-0.26475335 9.55190341 -0.14401669 4.77660627 0 0 Z " fill="#ECD0A3" transform="translate(104,114)"/>
<path d="M0 0 C0.33 0 0.66 0 1 0 C1 11.88 1 23.76 1 36 C3.64 35.67 6.28 35.34 9 35 C9.33 24.11 9.66 13.22 10 2 C10.33 2 10.66 2 11 2 C11 14.21 11 26.42 11 39 C7.37 39 3.74 39 0 39 C0 26.13 0 13.26 0 0 Z " fill="#E5C48F" transform="translate(459,376)"/>
<path d="M0 0 C0.91007812 0.00902344 1.82015625 0.01804687 2.7578125 0.02734375 C3.80582031 0.04474609 3.80582031 0.04474609 4.875 0.0625 C6.79263293 5.29145536 4.5650313 9.0950662 2.4375 13.875 C2.09912109 14.66326172 1.76074219 15.45152344 1.41210938 16.26367188 C0.57816313 18.20171598 -0.2718596 20.13282833 -1.125 22.0625 C-1.455 22.0625 -1.785 22.0625 -2.125 22.0625 C-2.125 19.7525 -2.125 17.4425 -2.125 15.0625 C-1.465 15.0625 -0.805 15.0625 -0.125 15.0625 C-0.00125 14.175625 0.1225 13.28875 0.25 12.375 C0.82020238 9.35292737 1.69893272 6.88506148 2.875 4.0625 C2.875 3.4025 2.875 2.7425 2.875 2.0625 C0.235 2.3925 -2.405 2.7225 -5.125 3.0625 C-5.28355469 3.70316406 -5.44210938 4.34382813 -5.60546875 5.00390625 C-7.22665658 11.01394511 -9.22327283 15.21170406 -13.125 20.0625 C-14.125 18.0625 -14.125 18.0625 -13.62768555 16.29077148 C-13.3419165 15.59540283 -13.05614746 14.90003418 -12.76171875 14.18359375 C-12.45169922 13.42755859 -12.14167969 12.67152344 -11.82226562 11.89257812 C-11.48904297 11.10302734 -11.15582031 10.31347656 -10.8125 9.5 C-10.33006836 8.30987305 -10.33006836 8.30987305 -9.83789062 7.09570312 C-7.41639301 1.27316983 -6.57615281 -0.08430965 0 0 Z " fill="#ECD8B1" transform="translate(63.125,364.9375)"/>
<path d="M0 0 C7.83268054 0.08460587 15.66516232 0.17956667 23.49755192 0.28752708 C27.13496698 0.33734394 30.77235504 0.3836744 34.40991211 0.421875 C37.92433906 0.45891352 41.43853176 0.505322 44.95275688 0.55806351 C46.93726278 0.58544908 48.92189312 0.60328193 50.9065094 0.62094116 C56.95285895 0.71935636 62.30476441 0.88515682 68 3 C68 3.99 68 4.98 68 6 C66.94876953 5.51104248 65.89753906 5.02208496 64.81445312 4.51831055 C58.95773689 2.33551747 53.14460511 2.62624153 46.96875 2.70703125 C45.73709106 2.71127609 44.50543213 2.71552094 43.2364502 2.71989441 C39.32407256 2.73661251 35.41222051 2.77425338 31.5 2.8125 C28.83854921 2.82925548 26.17710335 2.84124245 23.515625 2.85351562 C17.01023902 2.88649364 10.50515708 2.93662502 4 3 C5.2375 3.7115625 5.2375 3.7115625 6.5 4.4375 C7.325 4.953125 8.15 5.46875 9 6 C9 6.33 9 6.66 9 7 C3.54545455 7.36363636 3.54545455 7.36363636 1.125 5.75 C0 4 0 4 0 0 Z " fill="#EECE9A" transform="translate(152,64)"/>
<path d="M0 0 C2.33294775 -0.04241723 4.66702567 -0.04092937 7 0 C7.33 0.33 7.66 0.66 8 1 C10.64984799 1.21128356 13.28339897 1.37612666 15.9375 1.5 C23.73130393 1.86565197 23.73130393 1.86565197 26 3 C26 15.87 26 28.74 26 42 C25.67 42 25.34 42 25 42 C23.93653556 33.78242924 23.88209675 25.65139345 23.9375 17.375 C23.94201172 16.08464844 23.94652344 14.79429688 23.95117188 13.46484375 C23.96285705 10.30984625 23.97923956 7.15494863 24 4 C22.68261841 4.01522705 22.68261841 4.01522705 21.33862305 4.03076172 C19.59899292 4.04260498 19.59899292 4.04260498 17.82421875 4.0546875 C16.67783936 4.06483887 15.53145996 4.07499023 14.3503418 4.08544922 C9.26385059 3.95572016 3.74041188 3.74041188 0 0 Z " fill="#E7CEA6" transform="translate(336,63)"/>
<path d="M0 0 C2.36328125 1.2890625 2.36328125 1.2890625 4.36328125 3.2890625 C3.98828125 5.9140625 3.98828125 5.9140625 3.36328125 8.2890625 C2.70328125 8.2890625 2.04328125 8.2890625 1.36328125 8.2890625 C1.03328125 9.2790625 0.70328125 10.2690625 0.36328125 11.2890625 C-1.38671875 12.1640625 -1.38671875 12.1640625 -3.63671875 12.2890625 C-6.38671875 10.8515625 -6.38671875 10.8515625 -8.63671875 9.2890625 C-5.77494818 7.85817722 -3.70296102 8.68914553 -0.63671875 9.2890625 C-0.63671875 8.6290625 -0.63671875 7.9690625 -0.63671875 7.2890625 C0.02328125 7.2890625 0.68328125 7.2890625 1.36328125 7.2890625 C0.70328125 5.3090625 0.04328125 3.3290625 -0.63671875 1.2890625 C-2.28671875 1.2890625 -3.93671875 1.2890625 -5.63671875 1.2890625 C-5.63671875 0.6290625 -5.63671875 -0.0309375 -5.63671875 -0.7109375 C-8.53261527 -0.73800195 -11.4282567 -0.75780779 -14.32421875 -0.7734375 C-15.14083984 -0.78181641 -15.95746094 -0.79019531 -16.79882812 -0.79882812 C-20.88170959 -0.81535801 -24.65323582 -0.74128848 -28.63671875 0.2890625 C-27.63671875 -1.7109375 -27.63671875 -1.7109375 -25.453125 -2.80859375 C-16.55359226 -5.65990035 -8.27727779 -3.74944239 0 0 Z " fill="#F0D8B0" transform="translate(240.63671875,368.7109375)"/>
<path d="M0 0 C0.33 0 0.66 0 1 0 C1.33 10.23 1.66 20.46 2 31 C4.97 31 7.94 31 11 31 C11 25.39 11 19.78 11 14 C11.66 14 12.32 14 13 14 C13.02683987 16.97922593 13.04676037 19.95821295 13.0625 22.9375 C13.07087891 23.78763672 13.07925781 24.63777344 13.08789062 25.51367188 C13.09111328 26.32255859 13.09433594 27.13144531 13.09765625 27.96484375 C13.10289307 28.7137085 13.10812988 29.46257324 13.11352539 30.23413086 C13 32 13 32 12 33 C10.14712498 33.07226502 8.29166122 33.0838122 6.4375 33.0625 C5.42558594 33.05347656 4.41367187 33.04445313 3.37109375 33.03515625 C2.19740234 33.01775391 2.19740234 33.01775391 1 33 C-0.15927528 29.52217417 -0.11313066 26.81196743 -0.09765625 23.14453125 C-0.0962413 22.48289474 -0.09482635 21.82125824 -0.09336853 21.13957214 C-0.08777996 19.03050172 -0.07522965 16.92153823 -0.0625 14.8125 C-0.05748352 13.38086091 -0.05292087 11.94922015 -0.04882812 10.51757812 C-0.0378143 7.01168412 -0.02055755 3.5058525 0 0 Z " fill="#F3E2A9" transform="translate(385,382)"/>
<path d="M0 0 C6.25 -0.48076923 6.25 -0.48076923 9.4375 1.5625 C11.5248128 4.81870797 11.2915423 7.20995016 11 11 C10.01 11 9.02 11 8 11 C7.67 12.32 7.34 13.64 7 15 C5.5 13.8125 5.5 13.8125 4 12 C4.04125 11.195625 4.0825 10.39125 4.125 9.5625 C4.28624005 6.72343758 4.28624005 6.72343758 1.5 4.6875 C0.675 4.130625 -0.15 3.57375 -1 3 C-0.67 2.01 -0.34 1.02 0 0 Z M6 6 C6 7.32 6 8.64 6 10 C6.66 10 7.32 10 8 10 C7.67 8.68 7.34 7.36 7 6 C6.67 6 6.34 6 6 6 Z " fill="#F6C97A" transform="translate(234,392)"/>
<path d="M0 0 C5.36812307 2.16128354 10.23420278 4.7682771 15.1875 7.75 C16.67949586 8.63964439 18.17168476 9.52896512 19.6640625 10.41796875 C20.39399414 10.85415527 21.12392578 11.2903418 21.87597656 11.73974609 C23.83314437 12.90099899 25.7992932 14.04369153 27.7734375 15.17578125 C28.85882813 15.79839844 29.94421875 16.42101562 31.0625 17.0625 C32.02285156 17.61035156 32.98320312 18.15820312 33.97265625 18.72265625 C34.64167969 19.14417969 35.31070313 19.56570312 36 20 C36 20.33 36 20.66 36 21 C31.37390802 21.3227506 28.71973879 20.84450614 25 18 C25 17.34 25 16.68 25 16 C24.0925 15.7525 23.185 15.505 22.25 15.25 C18.7930425 13.92040096 17.56796647 12.56796647 15 10 C12.70984902 8.82263388 10.40968619 7.92680238 8 7 C8 6.34 8 5.68 8 5 C5.69 4.67 3.38 4.34 1 4 C0.67 2.68 0.34 1.36 0 0 Z " fill="#F0D5A4" transform="translate(112,193)"/>
<path d="M0 0 C-3 2 -3 2 -6 2 C-6 1.34 -6 0.68 -6 0 C-14.09965365 0.38008083 -20.12742573 0.78859694 -26.5625 6.125 C-29.14142394 8.10878765 -30.80731196 8.63512137 -34 9 C-25.69098204 -2.60004075 -13.27161669 -4.97436907 0 0 Z " fill="#F0D4A2" transform="translate(126,367)"/>
<path d="M0 0 C3.3429554 0.28653903 5.00691925 1.00503218 7.75 3 C10.70478061 6.93970747 11.3016132 10.12248365 11 15 C9.46802307 19.27340934 7.36309443 21.98481189 4 25 C3.01 24.67 2.02 24.34 1 24 C1.66 23.67 2.32 23.34 3 23 C3 22.34 3 21.68 3 21 C3.99 21 4.98 21 6 21 C6 20.34 6 19.68 6 19 C6.66 19 7.32 19 8 19 C8.08114106 17.22992286 8.13925505 15.45877902 8.1875 13.6875 C8.22230469 12.70136719 8.25710937 11.71523438 8.29296875 10.69921875 C8.23518565 7.98392126 8.23518565 7.98392126 6.62109375 6.20703125 C4.9908357 4.90966728 4.9908357 4.90966728 2.875 4 C1 3 1 3 0 0 Z " fill="#EFD8AE" transform="translate(236,388)"/>
<path d="M0 0 C0.33 0 0.66 0 1 0 C1 13.2 1 26.4 1 40 C-3 41 -3 41 -5.359375 40.00390625 C-6.54273438 39.29041016 -6.54273438 39.29041016 -7.75 38.5625 C-8.54921875 38.08941406 -9.3484375 37.61632812 -10.171875 37.12890625 C-10.77515625 36.75636719 -11.3784375 36.38382813 -12 36 C-12 35.67 -12 35.34 -12 35 C-9.36 34.67 -6.72 34.34 -4 34 C-4 34.99 -4 35.98 -4 37 C-2.68 37.66 -1.36 38.32 0 39 C0 26.13 0 13.26 0 0 Z " fill="#F2CB8B" transform="translate(395,128)"/>
<path d="M0 0 C0.99 0 1.98 0 3 0 C3 1.32 3 2.64 3 4 C3.99 4 4.98 4 6 4 C6.33 7.3 6.66 10.6 7 14 C11.29 14 15.58 14 20 14 C19.67 14.99 19.34 15.98 19 17 C17.22992286 17.08114106 15.45877902 17.13925505 13.6875 17.1875 C12.70136719 17.22230469 11.71523438 17.25710938 10.69921875 17.29296875 C8 17 8 17 6.3125 15.8671875 C4.54933398 13.35887394 3.46184868 10.77808248 2.3125 7.9375 C1.87550781 6.87402344 1.43851563 5.81054688 0.98828125 4.71484375 C0 2 0 2 0 0 Z " fill="#EDD2A0" transform="translate(30,398)"/>
<path d="M0 0 C6.625 -0.125 6.625 -0.125 10 1 C10 16.84 10 32.68 10 49 C9.67 49 9.34 49 9 49 C9 33.82 9 18.64 9 3 C5.7 3 2.4 3 -1 3 C-0.67 2.01 -0.34 1.02 0 0 Z " fill="#F4DEC7" transform="translate(347,365)"/>
<path d="M0 0 C0.79664063 0.09925781 1.59328125 0.19851563 2.4140625 0.30078125 C4.375 0.6875 4.375 0.6875 5.375 1.6875 C5.51615161 4.35808851 5.41747107 7.01182238 5.375 9.6875 C5.045 9.6875 4.715 9.6875 4.375 9.6875 C4.375 7.3775 4.375 5.0675 4.375 2.6875 C0.745 2.6875 -2.885 2.6875 -6.625 2.6875 C-6.625 8.6275 -6.625 14.5675 -6.625 20.6875 C-13.225 20.6875 -19.825 20.6875 -26.625 20.6875 C-26.625 20.3575 -26.625 20.0275 -26.625 19.6875 C-20.355 19.6875 -14.085 19.6875 -7.625 19.6875 C-7.74359265 13.85333997 -7.74359265 13.85333997 -7.89526367 8.02001953 C-7.90275635 7.29411621 -7.91024902 6.56821289 -7.91796875 5.8203125 C-7.9336792 5.07668457 -7.94938965 4.33305664 -7.96557617 3.56689453 C-7.85318604 2.94669434 -7.7407959 2.32649414 -7.625 1.6875 C-4.3024775 -0.527515 -3.74768409 -0.50660876 0 0 Z " fill="#F2E5BF" transform="translate(311.625,365.3125)"/>
<path d="M0 0 C2.31 0 4.62 0 7 0 C7 0.66 7 1.32 7 2 C7.66 2 8.32 2 9 2 C9.33 2.66 9.66 3.32 10 4 C12.07979206 5.05441056 12.07979206 5.05441056 14.5 6 C18.88888889 7.77777778 18.88888889 7.77777778 20 10 C21.97522846 11.04808041 23.97481509 12.0520411 26 13 C26 13.66 26 14.32 26 15 C22.15896834 13.57713608 18.76533092 11.78460879 15.25 9.6875 C10.21081494 6.70639795 5.13436378 3.81352763 0 1 C0 0.67 0 0.34 0 0 Z " fill="#EFD4AB" transform="translate(274,253)"/>
<path d="M0 0 C5.27749285 0.53851968 9.25645564 1.77343836 14 4 C14 4.99 14 5.98 14 7 C14.99 7 15.98 7 17 7 C17 7.66 17 8.32 17 9 C17.9590625 9.1546875 17.9590625 9.1546875 18.9375 9.3125 C19.618125 9.539375 20.29875 9.76625 21 10 C21.33 10.99 21.66 11.98 22 13 C16.0233777 11.42720466 11.16916686 8.27045994 6 5 C5.34773437 4.58878906 4.69546875 4.17757812 4.0234375 3.75390625 C2.65886487 2.8711377 1.32484718 1.94133879 0 1 C0 0.67 0 0.34 0 0 Z " fill="#F1D19E" transform="translate(183,200)"/>
<path d="M0 0 C4.20982521 1.25372897 7.54662138 2.80438713 11.1875 5.25 C16.63466727 8.81909174 22.24375576 11.96043583 28 15 C26 16 26 16 22.25 14.8125 C18.47437701 13.32824241 15.35227458 11.28564176 12 9 C10.67323492 8.64141484 9.34164079 8.2981424 8 8 C7.67 7.34 7.34 6.68 7 6 C6.01 5.67 5.02 5.34 4 5 C4 4.34 4 3.68 4 3 C2.68 2.67 1.36 2.34 0 2 C0 1.34 0 0.68 0 0 Z " fill="#EFD5A6" transform="translate(212,100)"/>
<path d="M0 0 C4.54706882 1.65107159 8.6233452 3.9264648 12.8125 6.3125 C13.52083984 6.71331787 14.22917969 7.11413574 14.95898438 7.52709961 C19.71833379 10.23351438 24.39993333 13.02912361 29 16 C27.125 16.58203125 27.125 16.58203125 25 17 C23 15.6875 23 15.6875 21 14 C19.67592331 13.31513275 18.34090759 12.65129797 17 12 C14.65415192 10.68774373 12.32834267 9.34327462 10 8 C10 7.34 10 6.68 10 6 C9.0925 6.0825 8.185 6.165 7.25 6.25 C4 6 4 6 1.625 4.125 C0 2 0 2 0 0 Z " fill="#F0D5A5" transform="translate(267,207)"/>
<path d="M0 0 C4.26238212 -0.35519851 5.68470877 0.4647773 9 3 C11.31347872 3.73260159 13.645752 4.411438 16 5 C16 6.32 16 7.64 16 9 C17.32 9 18.64 9 20 9 C20 9.66 20 10.32 20 11 C21.32 11 22.64 11 24 11 C24.33 11.99 24.66 12.98 25 14 C21.59514327 13.33488123 19.00886944 12.01123535 16.015625 10.27734375 C15.08105469 9.73916016 14.14648438 9.20097656 13.18359375 8.64648438 C12.21550781 8.08251953 11.24742188 7.51855469 10.25 6.9375 C9.26644531 6.36966797 8.28289062 5.80183594 7.26953125 5.21679688 C4.84380374 3.8155271 2.42077879 2.40979613 0 1 C0 0.67 0 0.34 0 0 Z " fill="#F1D19A" transform="translate(116,87)"/>
<path d="M0 0 C10.56 0 21.12 0 32 0 C32 0.33 32 0.66 32 1 C23.42 1 14.84 1 6 1 C6.33 2.32 6.66 3.64 7 5 C8.65 5.33 10.3 5.66 12 6 C12 6.66 12 7.32 12 8 C7.39571066 6.68448876 3.81679612 4.90803514 0 2 C0 1.34 0 0.68 0 0 Z " fill="#EFD5A4" transform="translate(281,30)"/>
<path d="M0 0 C2.475 0.495 2.475 0.495 5 1 C4.01 1.33 3.02 1.66 2 2 C1.67 14.87 1.34 27.74 1 41 C2.32 41.33 3.64 41.66 5 42 C5.33 42.99 5.66 43.98 6 45 C1.125 43.125 1.125 43.125 0 42 C-0.08874135 38.89748799 -0.11518455 35.8173188 -0.09765625 32.71484375 C-0.0962413 31.78402481 -0.09482635 30.85320587 -0.09336853 29.8941803 C-0.08775172 26.90858809 -0.0751964 23.92306971 -0.0625 20.9375 C-0.05748716 18.91862087 -0.05292388 16.89974057 -0.04882812 14.88085938 C-0.03777683 9.92054428 -0.02050095 4.96028468 0 0 Z " fill="#EBD2A4" transform="translate(104,189)"/>
<path d="M0 0 C3.63 0.33 7.26 0.66 11 1 C11 1.33 11 1.66 11 2 C8.03 2 5.06 2 2 2 C2 4.31 2 6.62 2 9 C5.63 9 9.26 9 13 9 C13 9.66 13 10.32 13 11 C8.71 11 4.42 11 0 11 C0 7.37 0 3.74 0 0 Z " fill="#E7CA97" transform="translate(445,366)"/>
<path d="M0 0 C1.21236328 0.01353516 1.21236328 0.01353516 2.44921875 0.02734375 C3.37154297 0.04474609 3.37154297 0.04474609 4.3125 0.0625 C3.9825 1.0525 3.6525 2.0425 3.3125 3.0625 C1.6625 3.0625 0.0125 3.0625 -1.6875 3.0625 C-2.68593846 6.05781539 -2.69482761 7.23505732 -2.25 10.25 C-2.064375 11.508125 -1.87875 12.76625 -1.6875 14.0625 C-5.11681954 10.3065786 -6.25179083 5.82783255 -7.6875 1.0625 C-4.80538698 0.10179566 -2.98899956 -0.04331883 0 0 Z " fill="#EDD6A9" transform="translate(23.6875,364.9375)"/>
<path d="M0 0 C0.66 0 1.32 0 2 0 C2 1.65 2 3.3 2 5 C1.01 5.33 0.02 5.66 -1 6 C-1.33 7.65 -1.66 9.3 -2 11 C-2.66 11 -3.32 11 -4 11 C-4.103125 11.5775 -4.20625 12.155 -4.3125 12.75 C-5.11649921 15.38127015 -6.13067515 16.98688093 -8 19 C-8.99 19 -9.98 19 -11 19 C-8.93259237 14.41057155 -5.8065426 10.64405608 -2.77734375 6.65625 C-1.19893179 4.29730465 -0.423643 2.7634559 0 0 Z " fill="#F1D4A0" transform="translate(335,213)"/>
<path d="M0 0 C1.125 3.75 1.125 3.75 0 6 C-0.02577436 9.416944 0.02844164 12.81931013 0.12695312 16.234375 C0.15676687 18.15648463 0.08484824 20.07953259 0 22 C-0.66 22.66 -1.32 23.32 -2 24 C-3.11944258 20.37083939 -3.20117188 16.90917966 -3.25 13.125 C-3.27578125 11.93132812 -3.3015625 10.73765625 -3.328125 9.5078125 C-2.971478 5.6950862 -1.91012905 3.28743262 0 0 Z " fill="#EECE9A" transform="translate(91,377)"/>
<path d="M0 0 C0.66 0.99 1.32 1.98 2 3 C-1.63 3 -5.26 3 -9 3 C-9 4.32 -9 5.64 -9 7 C-6.08235 8.9451 -4.37462715 9.45276317 -1 10 C-1 10.33 -1 10.66 -1 11 C-2.47968324 10.85950482 -3.95874516 10.71245174 -5.4375 10.5625 C-6.26121094 10.48128906 -7.08492187 10.40007812 -7.93359375 10.31640625 C-10 10 -10 10 -11 9 C-11.14115161 6.32941149 -11.04247107 3.67567762 -11 1 C-7.30992118 -0.18082522 -3.85119054 -0.28527337 0 0 Z " fill="#F1D7A7" transform="translate(228,374)"/>
<path d="M0 0 C2.33294775 -0.04241723 4.66702567 -0.04092937 7 0 C7.33 0.33 7.66 0.66 8 1 C10.67060873 1.21083753 13.3252135 1.37591197 16 1.5 C23.86486486 1.86486486 23.86486486 1.86486486 25 3 C25.04063832 4.66617115 25.042721 6.33388095 25 8 C24.67 6.68 24.34 5.36 24 4 C23.16597656 4.02320312 22.33195312 4.04640625 21.47265625 4.0703125 C14.62802759 4.18007745 8.58142093 3.94205864 2 2 C1.34 1.34 0.68 0.68 0 0 Z " fill="#F2D9AB" transform="translate(336,63)"/>
<path d="M0 0 C-0.66 1.65 -1.32 3.3 -2 5 C-1.34 5 -0.68 5 0 5 C0 5.66 0 6.32 0 7 C1.32 7.33 2.64 7.66 4 8 C2.328125 8.6796875 2.328125 8.6796875 0 9 C-2.578125 7.8203125 -2.578125 7.8203125 -5.25 6.125 C-6.14203125 5.57070313 -7.0340625 5.01640625 -7.953125 4.4453125 C-8.62859375 3.96835937 -9.3040625 3.49140625 -10 3 C-10 2.67 -10 2.34 -10 2 C-6.38026598 0.68373308 -3.90432869 0 0 0 Z " fill="#F1D097" transform="translate(248,306)"/>
<path d="M0 0 C6.68412752 3.63566563 13.35556707 7.29224236 20 11 C18.18359375 11.61328125 18.18359375 11.61328125 16 12 C13.95436401 10.73779907 11.95597184 9.39712274 10 8 C8.34416775 7.30686092 6.67889021 6.63525576 5 6 C4.01 5.34 3.02 4.68 2 4 C2 3.34 2 2.68 2 2 C1.34 2 0.68 2 0 2 C0 1.34 0 0.68 0 0 Z " fill="#F0D8A3" transform="translate(154,217)"/>
<path d="M0 0 C3.59391114 1.33488128 6.75490696 2.96022723 10 5 C9.55530671 10.03985731 7.28656638 12.37634988 4 16 C3.67 15.01 3.34 14.02 3 13 C3.66 13 4.32 13 5 13 C5.33 11.68 5.66 10.36 6 9 C6.66 9 7.32 9 8 9 C8 8.01 8 7.02 8 6 C6.35 5.67 4.7 5.34 3 5 C3 4.34 3 3.68 3 3 C2.01 2.67 1.02 2.34 0 2 C0 1.34 0 0.68 0 0 Z " fill="#EFDBAC" transform="translate(378,195)"/>
<path d="M0 0 C3.6970912 1.40489466 7.14747703 3.05503922 10.625 4.9375 C11.56601563 5.44152344 12.50703125 5.94554687 13.4765625 6.46484375 C15.69528553 7.81462417 17.28571415 9.07286658 19 11 C16.525 10.505 16.525 10.505 14 10 C14 9.34 14 8.68 14 8 C12.35 8 10.7 8 9 8 C8.67 7.34 8.34 6.68 8 6 C5.47266765 5.34444881 5.47266765 5.34444881 3 5 C3 4.34 3 3.68 3 3 C2.01 2.67 1.02 2.34 0 2 C0 1.34 0 0.68 0 0 Z " fill="#F2D4A6" transform="translate(150,140)"/>
<path d="M0 0 C1.73828125 2.02734375 1.73828125 2.02734375 3 4 C1.53626953 3.96519531 1.53626953 3.96519531 0.04296875 3.9296875 C-1.22933594 3.91164063 -2.50164062 3.89359375 -3.8125 3.875 C-5.07707031 3.85179687 -6.34164062 3.82859375 -7.64453125 3.8046875 C-11.1338024 3.72418082 -11.1338024 3.72418082 -14 6 C-14 5.01 -14 4.02 -14 3 C-9.00687166 0.004123 -5.68439119 -0.65230719 0 0 Z " fill="#F1D2A1" transform="translate(118,374)"/>
<path d="M0 0 C6.03523728 3.27408894 12.05469543 6.56493514 18 10 C16.4375 10.75 16.4375 10.75 14 11 C11.49713591 9.86915563 9.32992278 8.47860484 7 7 C7 6.34 7 5.68 7 5 C5.35 5 3.7 5 2 5 C1.34 3.35 0.68 1.7 0 0 Z " fill="#F1D6AD" transform="translate(297,224)"/>
<path d="M0 0 C5.11476819 -0.63934602 8.67254378 1.59466453 13 4 C13 4.66 13 5.32 13 6 C13.99 6.33 14.98 6.66 16 7 C16 7.66 16 8.32 16 9 C12.20950293 7.57250019 8.72877544 5.83763458 5.1875 3.875 C4.21167969 3.33617187 3.23585937 2.79734375 2.23046875 2.2421875 C1.49441406 1.83226562 0.75835937 1.42234375 0 1 C0 0.67 0 0.34 0 0 Z " fill="#F0D29B" transform="translate(231,153)"/>
<path d="M0 0 C3.72634674 0.60879274 6.79721322 1.65582431 10.1875 3.3125 C11.47720703 3.92544922 11.47720703 3.92544922 12.79296875 4.55078125 C15.22573698 6.14822729 15.97604502 7.31712353 17 10 C12.97683781 8.51463956 9.38707358 6.60123107 5.6875 4.4375 C4.61886719 3.81746094 3.55023438 3.19742188 2.44921875 2.55859375 C1.64097656 2.04425781 0.83273438 1.52992187 0 1 C0 0.67 0 0.34 0 0 Z " fill="#F0D1A0" transform="translate(237,79)"/>
<path d="M0 0 C1.45792884 -0.05399736 2.91642712 -0.09279177 4.375 -0.125 C5.18710937 -0.14820313 5.99921875 -0.17140625 6.8359375 -0.1953125 C9 0 9 0 11 2 C11.22705078 3.87939453 11.22705078 3.87939453 11.1953125 6.1328125 C11.18564453 7.34130859 11.18564453 7.34130859 11.17578125 8.57421875 C11.15902344 9.41597656 11.14226562 10.25773437 11.125 11.125 C11.11597656 11.97449219 11.10695313 12.82398438 11.09765625 13.69921875 C11.07405647 15.79959884 11.03818483 17.89983444 11 20 C10.67 20 10.34 20 10 20 C10 14.39 10 8.78 10 3 C6.7 2.67 3.4 2.34 0 2 C0 1.34 0 0.68 0 0 Z " fill="#F3E3C3" transform="translate(274,365)"/>
<path d="M0 0 C6.68412752 3.63566563 13.35556707 7.29224236 20 11 C18.68 11.33 17.36 11.66 16 12 C16 11.34 16 10.68 16 10 C13.03 9.505 13.03 9.505 10 9 C9.67 8.01 9.34 7.02 9 6 C5.48809191 4.77030122 5.48809191 4.77030122 2 4 C2 3.34 2 2.68 2 2 C1.34 2 0.68 2 0 2 C0 1.34 0 0.68 0 0 Z " fill="#F1D8A5" transform="translate(233,263)"/>
<path d="M0 0 C5.0261109 0.53676912 8.62239409 2.94418501 12.8125 5.5625 C13.50537109 5.98724609 14.19824219 6.41199219 14.91210938 6.84960938 C16.61216951 7.89309456 18.30665476 8.94565296 20 10 C19.34 10.66 18.68 11.32 18 12 C18 11.34 18 10.68 18 10 C17.401875 9.855625 16.80375 9.71125 16.1875 9.5625 C14.43849596 9.1127561 12.71322977 8.57107659 11 8 C11 7.34 11 6.68 11 6 C10.28972656 5.81824219 9.57945313 5.63648437 8.84765625 5.44921875 C7.92855469 5.19785156 7.00945312 4.94648437 6.0625 4.6875 C5.14597656 4.44386719 4.22945313 4.20023437 3.28515625 3.94921875 C2.53105469 3.63597656 1.77695313 3.32273437 1 3 C0.67 2.01 0.34 1.02 0 0 Z " fill="#F1DAB0" transform="translate(104,114)"/>
<path d="M0 0 C2.04136395 -0.05451714 4.08315856 -0.09302485 6.125 -0.125 C7.83042969 -0.15980469 7.83042969 -0.15980469 9.5703125 -0.1953125 C13.05757767 0.00327891 15.7553862 0.7475199 19 2 C16 4 16 4 13 4 C13 3.34 13 2.68 13 2 C8.71 2 4.42 2 0 2 C0 1.34 0 0.68 0 0 Z " fill="#F3DCB6" transform="translate(107,365)"/>
<path d="M0 0 C5.56451613 -0.37096774 5.56451613 -0.37096774 7.6875 1.4375 C8.120625 1.953125 8.55375 2.46875 9 3 C9.99 3.33 10.98 3.66 12 4 C12 4.66 12 5.32 12 6 C12.99 6.33 13.98 6.66 15 7 C15 7.66 15 8.32 15 9 C11.32305352 7.62859834 8.04681411 5.96304199 4.6875 3.9375 C3.80449219 3.41027344 2.92148438 2.88304687 2.01171875 2.33984375 C1.34785156 1.89769531 0.68398437 1.45554687 0 1 C0 0.67 0 0.34 0 0 Z " fill="#F0D3A5" transform="translate(223,299)"/>
<path d="M0 0 C5.96652354 1.57013777 10.82909025 4.75029782 16 8 C15.67 8.66 15.34 9.32 15 10 C12.03 9.505 12.03 9.505 9 9 C8.67 8.01 8.34 7.02 8 6 C7.01 5.67 6.02 5.34 5 5 C5 4.34 5 3.68 5 3 C3.35 2.67 1.7 2.34 0 2 C0 1.34 0 0.68 0 0 Z " fill="#F3DCAF" transform="translate(310,156)"/>
<path d="M0 0 C6.03523728 3.27408894 12.05469543 6.56493514 18 10 C16.4375 10.75 16.4375 10.75 14 11 C11.49713591 9.86915563 9.32992278 8.47860484 7 7 C7 6.34 7 5.68 7 5 C5.35 4.67 3.7 4.34 2 4 C2 3.34 2 2.68 2 2 C1.34 2 0.68 2 0 2 C0 1.34 0 0.68 0 0 Z " fill="#F0D5A8" transform="translate(329,88)"/>
<path d="M0 0 C0.33 1.32 0.66 2.64 1 4 C2.65 4 4.3 4 6 4 C6.33 5.65 6.66 7.3 7 9 C2.69235185 7.43358249 -1.06171464 5.31663844 -5 3 C-2.25 0 -2.25 0 0 0 Z " fill="#F3D599" transform="translate(271,94)"/>
<path d="M0 0 C4.04301175 1.48518799 7.61146256 3.42877998 11.3125 5.625 C12.38113281 6.25664063 13.44976562 6.88828125 14.55078125 7.5390625 C15.76314453 8.26222656 15.76314453 8.26222656 17 9 C16.01 9.495 16.01 9.495 15 10 C10.06058077 8.31019868 5.32344003 5.92124326 1 3 C0.67 2.01 0.34 1.02 0 0 Z " fill="#EFD4A3" transform="translate(311,78)"/>
<path d="M0 0 C0.66 0.33 1.32 0.66 2 1 C1.01 2.485 1.01 2.485 0 4 C-1.43017807 8.84671455 -2.25438424 12.91231529 -2 18 C-4.68461716 13.97307426 -4.6923222 10.73355175 -4 6 C-2.89807558 3.64283994 -1.66813462 2.03303906 0 0 Z " fill="#EED4A2" transform="translate(210,369)"/>
<path d="M0 0 C2.25525345 1.07335592 4.50375548 2.15807558 6.75 3.25 C7.38421875 3.55035156 8.0184375 3.85070312 8.671875 4.16015625 C12.41687422 5.99364545 15.24803883 7.85887261 18 11 C15.525 10.505 15.525 10.505 13 10 C13 9.34 13 8.68 13 8 C12.030625 7.87625 11.06125 7.7525 10.0625 7.625 C9.051875 7.41875 8.04125 7.2125 7 7 C6.67 6.34 6.34 5.68 6 5 C5.175 4.690625 4.35 4.38125 3.5 4.0625 C2.675 3.711875 1.85 3.36125 1 3 C0.67 2.01 0.34 1.02 0 0 Z " fill="#F3DCAD" transform="translate(214,252)"/>
<path d="M0 0 C5.96652354 1.57013777 10.82909025 4.75029782 16 8 C13 9 13 9 10.1171875 7.890625 C9.04726563 7.34921875 7.97734375 6.8078125 6.875 6.25 C5.79992187 5.71890625 4.72484375 5.1878125 3.6171875 4.640625 C1 3 1 3 0 0 Z " fill="#F1D8AB" transform="translate(249,197)"/>
<path d="M0 0 C3.3 0.33 6.6 0.66 10 1 C10 2.32 10 3.64 10 5 C10.99 5.33 11.98 5.66 13 6 C10 7 10 7 7.51953125 5.8203125 C6.62621094 5.26085937 5.73289063 4.70140625 4.8125 4.125 C3.91144531 3.57070312 3.01039063 3.01640625 2.08203125 2.4453125 C1.39496094 1.96835938 0.70789063 1.49140625 0 1 C0 0.67 0 0.34 0 0 Z " fill="#F0D3A3" transform="translate(158,186)"/>
<path d="M0 0 C4.30764815 1.56641751 8.06171464 3.68336156 12 6 C11.34 6.66 10.68 7.32 10 8 C9.01 7.67 8.02 7.34 7 7 C6.34 6.896875 5.68 6.79375 5 6.6875 C2.30834005 5.76224189 1.45226681 4.39624023 0 2 C0 1.34 0 0.68 0 0 Z " fill="#F0D198" transform="translate(288,65)"/>
<path d="M0 0 C0.66 0 1.32 0 2 0 C2 1.32 2 2.64 2 4 C3.65 3.67 5.3 3.34 7 3 C7.33 4.32 7.66 5.64 8 7 C7.01 7.495 7.01 7.495 6 8 C3.8359375 7.00390625 3.8359375 7.00390625 1.375 5.5625 C0.55773437 5.08941406 -0.25953125 4.61632812 -1.1015625 4.12890625 C-1.72804688 3.75636719 -2.35453125 3.38382812 -3 3 C-2.01 2.67 -1.02 2.34 0 2 C0 1.34 0 0.68 0 0 Z " fill="#F1CF96" transform="translate(315,273)"/>
<path d="M0 0 C3.79049707 1.42749981 7.27122456 3.16236542 10.8125 5.125 C12.27623047 5.93324219 12.27623047 5.93324219 13.76953125 6.7578125 C14.50558594 7.16773438 15.24164063 7.57765625 16 8 C16 8.33 16 8.66 16 9 C11.13823873 9.57197191 8.85901296 7.81386362 5 5 C4.05125 4.46375 3.1025 3.9275 2.125 3.375 C1.42375 2.92125 0.7225 2.4675 0 2 C0 1.34 0 0.68 0 0 Z " fill="#F1D9AD" transform="translate(198,243)"/>
<path d="M0 0 C2.475 0.495 2.475 0.495 5 1 C5 1.66 5 2.32 5 3 C6.6396875 3.0928125 6.6396875 3.0928125 8.3125 3.1875 C12 4 12 4 13.9375 6.5625 C14.288125 7.366875 14.63875 8.17125 15 9 C11.32305352 7.62859834 8.04681411 5.96304199 4.6875 3.9375 C3.80449219 3.41027344 2.92148438 2.88304687 2.01171875 2.33984375 C1.34785156 1.89769531 0.68398437 1.45554688 0 1 C0 0.67 0 0.34 0 0 Z " fill="#EFD7A7" transform="translate(216,144)"/>
<path d="M0 0 C0.66 0.33 1.32 0.66 2 1 C-0.97 7.93 -0.97 7.93 -4 15 C-4.33 15 -4.66 15 -5 15 C-5.125 9.25 -5.125 9.25 -4 7 C-3.34 7 -2.68 7 -2 7 C-2 5.35 -2 3.7 -2 2 C-1.34 2 -0.68 2 0 2 C0 1.34 0 0.68 0 0 Z " fill="#ECD19F" transform="translate(59,387)"/>
<path d="M0 0 C0.66 0.99 1.32 1.98 2 3 C2.66 2.01 3.32 1.02 4 0 C4 1.65 4 3.3 4 5 C3.38125 5.2475 2.7625 5.495 2.125 5.75 C-0.35068687 7.20628639 -0.95125002 8.37812506 -2 11 C-2.66 10.67 -3.32 10.34 -4 10 C-2.68 6.7 -1.36 3.4 0 0 Z " fill="#F1D49E" transform="translate(48,385)"/>
<path d="M0 0 C5.56451613 -0.37096774 5.56451613 -0.37096774 7.6875 1.4375 C8.120625 1.953125 8.55375 2.46875 9 3 C9.99 3.33 10.98 3.66 12 4 C12 4.99 12 5.98 12 7 C7.39104317 5.68315519 3.85859765 3.84801255 0 1 C0 0.67 0 0.34 0 0 Z " fill="#EED2A0" transform="translate(185,277)"/>
<path d="M0 0 C0.99 0 1.98 0 3 0 C1.5140084 4.59306496 -0.85014682 7.43569245 -4 11 C-4.33 9.68 -4.66 8.36 -5 7 C-4.01 6.67 -3.02 6.34 -2 6 C-0.77479736 2.99152582 -0.77479736 2.99152582 0 0 Z " fill="#EED4A9" transform="translate(369,224)"/>
<path d="M0 0 C6.75 0.875 6.75 0.875 9 2 C9 2.66 9 3.32 9 4 C9.99 4.33 10.98 4.66 12 5 C12 5.66 12 6.32 12 7 C7.69235185 5.43358249 3.93828536 3.31663844 0 1 C0 0.67 0 0.34 0 0 Z " fill="#EDD59B" transform="translate(302,43)"/>
<path d="M0 0 C0.33 0.66 0.66 1.32 1 2 C4.3 2 7.6 2 11 2 C11 2.99 11 3.98 11 5 C7.37 5 3.74 5 0 5 C0 3.35 0 1.7 0 0 Z " fill="#E9CEA5" transform="translate(459,410)"/>
<path d="M0 0 C0.66 0.33 1.32 0.66 2 1 C2.125 7.75 2.125 7.75 1 10 C-1.5625 10.625 -1.5625 10.625 -4 11 C-3.525625 10.113125 -3.05125 9.22625 -2.5625 8.3125 C-1.20262851 5.42957244 -0.45939614 3.12389377 0 0 Z " fill="#EDD49F" transform="translate(127,391)"/>
<path d="M0 0 C4.97209562 1.76429199 9.43438061 4.3939166 14 7 C12.68 7.33 11.36 7.66 10 8 C10 7.34 10 6.68 10 6 C9.0925 6.0825 8.185 6.165 7.25 6.25 C4 6 4 6 1.625 4.125 C0 2 0 2 0 0 Z " fill="#F5DAAD" transform="translate(267,207)"/>
<path d="M0 0 C0.33 0.99 0.66 1.98 1 3 C4.3 2.67 7.6 2.34 11 2 C11 2.99 11 3.98 11 5 C7.37 5 3.74 5 0 5 C0 3.35 0 1.7 0 0 Z " fill="#E7D3AD" transform="translate(345,410)"/>
<path d="M0 0 C0.33 0.99 0.66 1.98 1 3 C2.49985609 4.66710346 2.49985609 4.66710346 4 6 C3.01 6.495 3.01 6.495 2 7 C-0.1640625 6.00390625 -0.1640625 6.00390625 -2.625 4.5625 C-3.44226563 4.08941406 -4.25953125 3.61632812 -5.1015625 3.12890625 C-5.72804688 2.75636719 -6.35453125 2.38382813 -7 2 C-7 1.67 -7 1.34 -7 1 C-3.535 0.505 -3.535 0.505 0 0 Z " fill="#F2D6A7" transform="translate(390,162)"/>
<path d="M0 0 C1.44010481 0.25662245 2.8770687 0.53090821 4.3125 0.8125 C5.11300781 0.96332031 5.91351563 1.11414063 6.73828125 1.26953125 C9.26320524 2.08500756 10.38069734 2.91953671 12 5 C12 5.66 12 6.32 12 7 C7.39104317 5.68315519 3.85859765 3.84801255 0 1 C0 0.67 0 0.34 0 0 Z " fill="#F1D4A6" transform="translate(321,127)"/>
<path d="M0 0 C1.32 0 2.64 0 4 0 C4.33 0.66 4.66 1.32 5 2 C6.155 2.474375 7.31 2.94875 8.5 3.4375 C9.655 3.953125 10.81 4.46875 12 5 C12.33 5.99 12.66 6.98 13 8 C8.27626146 6.37621488 4.05818166 3.89006982 0 1 C0 0.67 0 0.34 0 0 Z " fill="#EDD5A6" transform="translate(183,125)"/>
<path d="M0 0 C4.62 2.31 9.24 4.62 14 7 C10.23375329 8.25541557 8.62811066 7.37061958 5 6 C5 5.34 5 4.68 5 4 C4.01 4 3.02 4 2 4 C2 3.34 2 2.68 2 2 C1.34 2 0.68 2 0 2 C0 1.34 0 0.68 0 0 Z " fill="#F1DAAF" transform="translate(251,122)"/>
<path d="M0 0 C0.66 0.33 1.32 0.66 2 1 C0.22972246 5.60272162 -1.18699218 8.7129243 -5 12 C-4.54738642 10.56068883 -4.08767021 9.12361001 -3.625 7.6875 C-3.24214844 6.48673828 -3.24214844 6.48673828 -2.8515625 5.26171875 C-2 3 -2 3 0 0 Z " fill="#EDD49C" transform="translate(54,373)"/>
<path d="M0 0 C1.27450447 0.59638333 2.54446877 1.20247416 3.8125 1.8125 C4.52019531 2.14894531 5.22789062 2.48539063 5.95703125 2.83203125 C8.01129035 4.00645471 9.41616278 5.25628016 11 7 C9.68 7 8.36 7 7 7 C7 6.34 7 5.68 7 5 C5.02 5 3.04 5 1 5 C0.67 3.35 0.34 1.7 0 0 Z " fill="#F0D5A8" transform="translate(186,160)"/>
<path d="M0 0 C4.19360449 0.67097672 7.40334352 2.8558394 11 5 C10.01 5.66 9.02 6.32 8 7 C4.22873209 5.98819642 3.21585428 5.32378142 1 2 C0.67 1.34 0.34 0.68 0 0 Z " fill="#F3D7A8" transform="translate(169,151)"/>
<path d="M0 0 C2.9375 0.375 2.9375 0.375 6 1 C6.33 1.66 6.66 2.32 7 3 C8.97888961 3.72693904 10.97954558 4.39816251 13 5 C13 5.99 13 6.98 13 8 C8.27626146 6.37621488 4.05818166 3.89006982 0 1 C0 0.67 0 0.34 0 0 Z " fill="#F2D8AC" transform="translate(351,144)"/>
<path d="M0 0 C5.28137429 0.51525603 8.57221156 2.25477117 13 5 C12.01 5.66 11.02 6.32 10 7 C7.3125 6.125 7.3125 6.125 5 5 C5 4.34 5 3.68 5 3 C4.34 3 3.68 3 3 3 C3 2.34 3 1.68 3 1 C2.01 0.67 1.02 0.34 0 0 Z " fill="#F1D6A2" transform="translate(280,140)"/>
<path d="M0 0 C2.31 0 4.62 0 7 0 C7.33 1.32 7.66 2.64 8 4 C8.99 4 9.98 4 11 4 C11 4.66 11 5.32 11 6 C6.49197399 4.74194623 3.5087188 3.09592835 0 0 Z " fill="#F3D5A5" transform="translate(317,52)"/>
<path d="M0 0 C8.35010941 1.17286652 8.35010941 1.17286652 11.0625 4.625 C11.371875 5.40875 11.68125 6.1925 12 7 C7.69235185 5.43358249 3.93828536 3.31663844 0 1 C0 0.67 0 0.34 0 0 Z " fill="#EDD6AA" transform="translate(209,291)"/>
<path d="M0 0 C0.33 0 0.66 0 1 0 C1.042721 1.66611905 1.04063832 3.33382885 1 5 C0 6 0 6 -3.5625 6.0625 C-4.696875 6.041875 -5.83125 6.02125 -7 6 C-7.33 5.01 -7.66 4.02 -8 3 C-5.525 3.495 -5.525 3.495 -3 4 C-2.2884375 3.01 -2.2884375 3.01 -1.5625 2 C-1.046875 1.34 -0.53125 0.68 0 0 Z " fill="#EFD1A1" transform="translate(323,232)"/>
<path d="M0 0 C1.32 1.32 2.64 2.64 4 4 C3.01 4.66 2.02 5.32 1 6 C-2.465 4.02 -2.465 4.02 -6 2 C-3.50907189 0.75453595 -2.58919267 1.2232422 0 2 C0 1.34 0 0.68 0 0 Z " fill="#F2D295" transform="translate(126,163)"/>
<path d="M0 0 C4.50802601 1.25805377 7.4912812 2.90407165 11 6 C9.68 6.33 8.36 6.66 7 7 C6.6596875 6.0409375 6.6596875 6.0409375 6.3125 5.0625 C5.14749104 2.72806339 5.14749104 2.72806339 2.375 2.25 C1.59125 2.1675 0.8075 2.085 0 2 C0 1.34 0 0.68 0 0 Z " fill="#F1D7A8" transform="translate(230,186)"/>
<path d="M0 0 C3.7910119 1.44950455 7.3874638 3.15172566 11 5 C10.01 5.66 9.02 6.32 8 7 C8 6.34 8 5.68 8 5 C5.69 4.67 3.38 4.34 1 4 C0.67 2.68 0.34 1.36 0 0 Z " fill="#F2D8AF" transform="translate(331,168)"/>
<path d="M0 0 C3.77545388 1.09068668 6.47043472 1.9083091 9 5 C4.25 6.125 4.25 6.125 2 5 C2 4.01 2 3.02 2 2 C1.34 2 0.68 2 0 2 C0 1.34 0 0.68 0 0 Z " fill="#F3D5A2" transform="translate(203,95)"/>
<path d="M0 0 C0.66 0 1.32 0 2 0 C1.67 1.32 1.34 2.64 1 4 C-0.6875 4.6875 -0.6875 4.6875 -3 5 C-5.75 3.5625 -5.75 3.5625 -8 2 C-5.13822943 0.56911472 -3.06624227 1.40008303 0 2 C0 1.34 0 0.68 0 0 Z " fill="#EED7B3" transform="translate(240,376)"/>
<path d="M0 0 C-0.8125 1.9375 -0.8125 1.9375 -2 4 C-2.99 4.33 -3.98 4.66 -5 5 C-7.6875 3.0625 -7.6875 3.0625 -10 1 C-8.8553125 1.309375 -8.8553125 1.309375 -7.6875 1.625 C-4.17504101 2.11511056 -3.32502623 0 0 0 Z " fill="#EFD29F" transform="translate(332,280)"/>
<path d="M0 0 C4.35522853 0.50642192 7.44239635 1.38411497 11 4 C11 4.66 11 5.32 11 6 C6.49197399 4.74194623 3.5087188 3.09592835 0 0 Z " fill="#EFD4A2" transform="translate(150,257)"/>
<path d="M0 0 C3.31562557 0.55260426 6.15062207 1.16825705 9 3 C9.33 3.99 9.66 4.98 10 6 C6.40992874 4.66654496 3.20429093 3.1056769 0 1 C0 0.67 0 0.34 0 0 Z " fill="#EFD3A6" transform="translate(320,204)"/>
<path d="M0 0 C3.3 1.65 6.6 3.3 10 5 C5.75492899 6.06126775 4.68024779 6.08878929 1 4 C0.67 2.68 0.34 1.36 0 0 Z " fill="#F0D5A5" transform="translate(220,180)"/>
<path d="M0 0 C3.3 1.65 6.6 3.3 10 5 C9.67 5.66 9.34 6.32 9 7 C7.68 7 6.36 7 5 7 C5 6.01 5 5.02 5 4 C2.525 3.01 2.525 3.01 0 2 C0 1.34 0 0.68 0 0 Z " fill="#F0D9A4" transform="translate(198,167)"/>
<path d="M0 0 C3.7910119 1.44950455 7.3874638 3.15172566 11 5 C11 5.33 11 5.66 11 6 C8.69 5.67 6.38 5.34 4 5 C3.67 4.01 3.34 3.02 3 2 C2.01 2 1.02 2 0 2 C0 1.34 0 0.68 0 0 Z " fill="#F3DBAD" transform="translate(240,116)"/>
<path d="M0 0 C4.50802601 1.25805377 7.4912812 2.90407165 11 6 C7.36029133 6.42820102 5.95430537 5.97413512 2.6875 4.125 C1.800625 3.42375 0.91375 2.7225 0 2 C0 1.34 0 0.68 0 0 Z " fill="#F0D6A7" transform="translate(300,72)"/>
<path d="M0 0 C0.66 0.33 1.32 0.66 2 1 C2.33 1.99 2.66 2.98 3 4 C3.66 4.33 4.32 4.66 5 5 C4.67 6.32 4.34 7.64 4 9 C-0.00390625 4.60546875 -0.00390625 4.60546875 -1 3 C-0.67 2.01 -0.34 1.02 0 0 Z " fill="#EBD7A6" transform="translate(91,400)"/>
<path d="M0 0 C1.60080151 4.00200378 0.29279692 7.04556236 -1 11 C-1.66 11 -2.32 11 -3 11 C-2.25 3.375 -2.25 3.375 0 0 Z " fill="#F0D7A9" transform="translate(91,377)"/>
<path d="M0 0 C2.97 0 5.94 0 9 0 C8.67 0.99 8.34 1.98 8 3 C5.03 3 2.06 3 -1 3 C-0.67 2.01 -0.34 1.02 0 0 Z " fill="#EADBBF" transform="translate(19,365)"/>
<path d="M0 0 C0.99 0 1.98 0 3 0 C3 0.66 3 1.32 3 2 C4.65 2 6.3 2 8 2 C8.33 3.32 8.66 4.64 9 6 C5.59687262 4.94124926 2.98646769 3.99097846 0 2 C0 1.34 0 0.68 0 0 Z " fill="#EFD5A1" transform="translate(255,317)"/>
<path d="M0 0 C3.02419525 0.58803797 6.01758453 1.22678118 9 2 C9.33 3.32 9.66 4.64 10 6 C6.40992874 4.66654496 3.20429093 3.1056769 0 1 C0 0.67 0 0.34 0 0 Z " fill="#EED5A3" transform="translate(161,263)"/>
<path d="M0 0 C0.33 0.99 0.66 1.98 1 3 C0.34 3 -0.32 3 -1 3 C0.11854586 6.72614153 0.11854586 6.72614153 3 9 C2.67 9.66 2.34 10.32 2 11 C0.35 9.68 -1.3 8.36 -3 7 C-2.67 5.35 -2.34 3.7 -2 2 C-1.34 2 -0.68 2 0 2 C0 1.34 0 0.68 0 0 Z " fill="#F0DEB0" transform="translate(207,401)"/>
<path d="M0 0 C-1.41029874 2.82059747 -3.07891581 2.98101714 -6 4 C-7.32676508 4.35858516 -8.65835921 4.7018576 -10 5 C-5.03424658 -1.67808219 -5.03424658 -1.67808219 0 0 Z " fill="#EECE95" transform="translate(108,367)"/>
<path d="M0 0 C1.32 0 2.64 0 4 0 C4 0.66 4 1.32 4 2 C5.65 2 7.3 2 9 2 C9.33 3.32 9.66 4.64 10 6 C6.00499382 4.6302836 3.19990508 2.74277578 0 0 Z " fill="#EED3AB" transform="translate(140,251)"/>
<path d="M0 0 C3.45925163 1.2491742 6.14693203 2.67527795 9 5 C6.36 4.67 3.72 4.34 1 4 C0.67 2.68 0.34 1.36 0 0 Z " fill="#F0D7A7" transform="translate(364,187)"/>
<path d="M0 0 C3.31562557 0.55260426 6.15062207 1.16825705 9 3 C9.33 3.99 9.66 4.98 10 6 C6.40992874 4.66654496 3.20429093 3.1056769 0 1 C0 0.67 0 0.34 0 0 Z " fill="#EED7AA" transform="translate(172,119)"/>
<path d="M0 0 C0.66 0.99 1.32 1.98 2 3 C0.35 5.31 -1.3 7.62 -3 10 C-3.33 8.68 -3.66 7.36 -4 6 C-3.34 6 -2.68 6 -2 6 C-2 4.68 -2 3.36 -2 2 C-1.34 2 -0.68 2 0 2 C0 1.34 0 0.68 0 0 Z " fill="#F2D4A0" transform="translate(347,255)"/>
<path d="M0 0 C3.06393013 -0.25532751 4.63233212 -0.21861333 7.3125 1.375 C7.869375 1.91125 8.42625 2.4475 9 3 C9 3.66 9 4.32 9 5 C5.22454612 3.90931332 2.52956528 3.0916909 0 0 Z " fill="#F0D7A7" transform="translate(269,175)"/>
<path d="M0 0 C3.77545388 1.09068668 6.47043472 1.9083091 9 5 C5.26512223 4.5020163 3.18762365 4.12508244 0 2 C0 1.34 0 0.68 0 0 Z " fill="#F1DAAC" transform="translate(266,131)"/>
<path d="M0 0 C3.77545388 1.09068668 6.47043472 1.9083091 9 5 C8.01 5.495 8.01 5.495 7 6 C6.01 5.67 5.02 5.34 4 5 C4 4.34 4 3.68 4 3 C2.68 2.67 1.36 2.34 0 2 C0 1.34 0 0.68 0 0 Z " fill="#F2D7AB" transform="translate(212,100)"/>
<path d="M0 0 C2.97 0.495 2.97 0.495 6 1 C6 1.66 6 2.32 6 3 C7.32 3 8.64 3 10 3 C10.33 3.99 10.66 4.98 11 6 C6.80639551 5.32902328 3.59665648 3.1441606 0 1 C0 0.67 0 0.34 0 0 Z " fill="#F0D8AD" transform="translate(130,95)"/>
<path d="M0 0 C0.99 0.33 1.98 0.66 3 1 C2.19152271 2.16945792 1.37810888 3.33550461 0.5625 4.5 C0.11003906 5.1496875 -0.34242188 5.799375 -0.80859375 6.46875 C-1.20175781 6.9740625 -1.59492188 7.479375 -2 8 C-2.33 8 -2.66 8 -3 8 C-3 6.35 -3 4.7 -3 3 C-2.01 3 -1.02 3 0 3 C0 2.01 0 1.02 0 0 Z " fill="#EDD0A8" transform="translate(335,272)"/>
<path d="M0 0 C1.65 0 3.3 0 5 0 C5 0.66 5 1.32 5 2 C5.99 2.33 6.98 2.66 8 3 C8 3.66 8 4.32 8 5 C4.62496331 3.8141763 2.35277269 2.72426311 0 0 Z " fill="#EFD6A6" transform="translate(175,271)"/>
<path d="M0 0 C3.96 1.98 3.96 1.98 8 4 C7.01 4.66 6.02 5.32 5 6 C4.34 5.67 3.68 5.34 3 5 C3 4.34 3 3.68 3 3 C2.01 3 1.02 3 0 3 C0 2.01 0 1.02 0 0 Z " fill="#F2DAAC" transform="translate(342,174)"/>
<path d="M0 0 C2.31 0 4.62 0 7 0 C7.33 1.32 7.66 2.64 8 4 C2.25 2.25 2.25 2.25 0 0 Z " fill="#EFD19A" transform="translate(287,108)"/>
<path d="M0 0 C3.45925163 1.2491742 6.14693203 2.67527795 9 5 C5.625 4.75 5.625 4.75 2 4 C0.5625 1.9375 0.5625 1.9375 0 0 Z " fill="#EED7AA" transform="translate(267,53)"/>
<path d="M0 0 C3.96 1.98 3.96 1.98 8 4 C8 4.33 8 4.66 8 5 C6.02 5 4.04 5 2 5 C1.34 3.35 0.68 1.7 0 0 Z " fill="#EFD5AA" transform="translate(245,40)"/>
<path d="M0 0 C6.75 2.75 6.75 2.75 9 5 C7.68 5.33 6.36 5.66 5 6 C5 5.34 5 4.68 5 4 C4.34 4 3.68 4 3 4 C3 3.34 3 2.68 3 2 C2.01 2 1.02 2 0 2 C0 1.34 0 0.68 0 0 Z " fill="#EFDAB2" transform="translate(253,275)"/>
<path d="M0 0 C2.31 0 4.62 0 7 0 C7 0.66 7 1.32 7 2 C7.66 2.33 8.32 2.66 9 3 C3.46153846 3.36923077 3.46153846 3.36923077 1.125 1.5 C0.75375 1.005 0.3825 0.51 0 0 Z " fill="#EFD096" transform="translate(274,253)"/>
<path d="M0 0 C0.66 0.33 1.32 0.66 2 1 C-0.475 4.465 -0.475 4.465 -3 8 C-3.33 6.68 -3.66 5.36 -4 4 C-2.68 3.34 -1.36 2.68 0 2 C0 1.34 0 0.68 0 0 Z " fill="#F0DBAD" transform="translate(356,244)"/>
<path d="M0 0 C4.75 1.875 4.75 1.875 7 3 C6.67 3.99 6.34 4.98 6 6 C5.01 5.67 4.02 5.34 3 5 C3 4.34 3 3.68 3 3 C2.01 2.67 1.02 2.34 0 2 C0 1.34 0 0.68 0 0 Z " fill="#EED09C" transform="translate(378,195)"/>
<path d="M0 0 C2.97 0.495 2.97 0.495 6 1 C6 1.66 6 2.32 6 3 C6.99 3 7.98 3 9 3 C8.67 3.99 8.34 4.98 8 6 C6.66402348 5.19185349 5.331275 4.37836819 4 3.5625 C3.2575 3.11003906 2.515 2.65757812 1.75 2.19140625 C1.1725 1.79824219 0.595 1.40507812 0 1 C0 0.67 0 0.34 0 0 Z " fill="#EFD6AC" transform="translate(139,175)"/>
<path d="M0 0 C4.75 0.75 4.75 0.75 7 3 C3.86650268 4.04449911 3.01031744 3.93423645 0 3 C0 2.01 0 1.02 0 0 Z " fill="#F3D59D" transform="translate(319,162)"/>
<path d="M0 0 C0.66 1.32 1.32 2.64 2 4 C-2.26826873 4 -2.93882432 3.62386487 -6 1 C-4.02 0.67 -2.04 0.34 0 0 Z " fill="#EFD49E" transform="translate(202,132)"/>
<path d="M0 0 C3.45925163 1.2491742 6.14693203 2.67527795 9 5 C6.69 4.67 4.38 4.34 2 4 C2 3.34 2 2.68 2 2 C1.34 2 0.68 2 0 2 C0 1.34 0 0.68 0 0 Z " fill="#F1D7A1" transform="translate(131,129)"/>
<path d="M0 0 C3.37462715 0.54723683 5.08235 1.0549 8 3 C8 3.66 8 4.32 8 5 C4.62496331 3.8141763 2.35277269 2.72426311 0 0 Z " fill="#F0D6AA" transform="translate(295,112)"/>
<path d="M0 0 C2.475 0.495 2.475 0.495 5 1 C5 1.66 5 2.32 5 3 C6.65 3 8.3 3 10 3 C8.02 3.99 8.02 3.99 6 5 C3.98079663 3.69593116 1.98075027 2.36176581 0 1 C0 0.67 0 0.34 0 0 Z " fill="#F2D5AD" transform="translate(141,101)"/>
<path d="M0 0 C3.96 1.98 3.96 1.98 8 4 C4 5 4 5 1.75 4.0625 C1.1725 3.711875 0.595 3.36125 0 3 C0 2.01 0 1.02 0 0 Z " fill="#EED7A2" transform="translate(195,90)"/>
<path d="M0 0 C1.98 0 3.96 0 6 0 C6.33 1.32 6.66 2.64 7 4 C4.97954558 3.39816251 2.97888961 2.72693904 1 2 C0.67 1.34 0.34 0.68 0 0 Z " fill="#EDD59D" transform="translate(256,90)"/>
<path d="M0 0 C3.3 1.65 6.6 3.3 10 5 C7 6 7 6 5.17578125 5.22265625 C3.45052083 4.1484375 1.72526042 3.07421875 0 2 C0 1.34 0 0.68 0 0 Z " fill="#F5DAAD" transform="translate(174,78)"/>
<path d="M0 0 C0.66 0 1.32 0 2 0 C0.95125002 2.62187494 0.35068687 3.79371361 -2.125 5.25 C-2.74375 5.4975 -3.3625 5.745 -4 6 C-4.33 5.34 -4.66 4.68 -5 4 C-4.34 4 -3.68 4 -3 4 C-3 3.34 -3 2.68 -3 2 C-2.01 2 -1.02 2 0 2 C0 1.34 0 0.68 0 0 Z " fill="#EDD1A1" transform="translate(242,407)"/>
<path d="M0 0 C0.66 0 1.32 0 2 0 C1.01 2.97 0.02 5.94 -1 9 C-1.33 9 -1.66 9 -2 9 C-2 6.69 -2 4.38 -2 2 C-1.34 2 -0.68 2 0 2 C0 1.34 0 0.68 0 0 Z " fill="#F1D8AB" transform="translate(52,403)"/>
<path d="M0 0 C0.66 0 1.32 0 2 0 C3.75 2.25 3.75 2.25 5 5 C4.34 6.32 3.68 7.64 3 9 C2.01 6.03 1.02 3.06 0 0 Z " fill="#EFD8AE" transform="translate(26,389)"/>
<path d="M0 0 C2.31 0 4.62 0 7 0 C7 0.66 7 1.32 7 2 C4.36 2.33 1.72 2.66 -1 3 C-0.67 2.01 -0.34 1.02 0 0 Z " fill="#EADCC1" transform="translate(347,365)"/>
<path d="M0 0 C3.77545388 1.09068668 6.47043472 1.9083091 9 5 C5.26512223 4.5020163 3.18762365 4.12508244 0 2 C0 1.34 0 0.68 0 0 Z " fill="#EED4A3" transform="translate(301,151)"/>
<path d="M0 0 C3.96 1.98 3.96 1.98 8 4 C4.37673261 5.2077558 3.35853631 4.54311128 0 3 C0 2.01 0 1.02 0 0 Z " fill="#F3D8A9" transform="translate(293,146)"/>
<path d="M0 0 C3.375 0.25 3.375 0.25 7 1 C8.4375 3.0625 8.4375 3.0625 9 5 C5.54074837 3.7508258 2.85306797 2.32472205 0 0 Z " fill="#F1D6A4" transform="translate(156,110)"/>
<path d="M0 0 C2.97 1.65 5.94 3.3 9 5 C7 6 7 6 4.5 5.3125 C2 4 2 4 0 0 Z " fill="#F0DCB6" transform="translate(319,82)"/>
<path d="M0 0 C3.37462715 0.54723683 5.08235 1.0549 8 3 C8 3.66 8 4.32 8 5 C4.62496331 3.8141763 2.35277269 2.72426311 0 0 Z " fill="#F1D6AB" transform="translate(237,79)"/>
<path d="M0 0 C2.97 0.495 2.97 0.495 6 1 C6 1.66 6 2.32 6 3 C6.99 3 7.98 3 9 3 C9 3.66 9 4.32 9 5 C5.22454612 3.90931332 2.52956528 3.0916909 0 0 Z " fill="#F2D6A2" transform="translate(228,74)"/>
<path d="M0 0 C0.33 1.32 0.66 2.64 1 4 C-2.37462715 3.45276317 -4.08235 2.9451 -7 1 C-2.25 0 -2.25 0 0 0 Z " fill="#F3D09C" transform="translate(336,58)"/>
<path d="M0 0 C3.45925163 1.2491742 6.14693203 2.67527795 9 5 C7.35 5 5.7 5 4 5 C3.67 4.01 3.34 3.02 3 2 C2.01 2 1.02 2 0 2 C0 1.34 0 0.68 0 0 Z " fill="#F0D9A9" transform="translate(253,45)"/>
</svg>
